<?xml version="1.0" encoding="UTF-8" standalone="no"?>
<!-- Created with Inkscape (http://www.inkscape.org/) -->

<svg
   xmlns:dc="http://purl.org/dc/elements/1.1/"
   xmlns:cc="http://creativecommons.org/ns#"
   xmlns:rdf="http://www.w3.org/1999/02/22-rdf-syntax-ns#"
   xmlns:svg="http://www.w3.org/2000/svg"
   xmlns="http://www.w3.org/2000/svg"
   xmlns:sodipodi="http://sodipodi.sourceforge.net/DTD/sodipodi-0.dtd"
   xmlns:inkscape="http://www.inkscape.org/namespaces/inkscape"
   width="400"
   height="320"
   viewBox="0 0 105.83333 84.666667"
   version="1.1"
   id="svg8"
   inkscape:version="0.92.3 (2405546, 2018-03-11)"
   sodipodi:docname="register_machine.plain.svg">
  <defs
     id="defs2">
    <marker
       inkscape:stockid="Arrow2Mend"
       orient="auto"
       refY="0.0"
       refX="0.0"
       id="Arrow2Mend"
       style="overflow:visible;"
       inkscape:isstock="true">
      <path
         id="path1069"
         style="fill-rule:evenodd;stroke-width:0.625;stroke-linejoin:round;stroke:#000000;stroke-opacity:1;fill:#000000;fill-opacity:1"
         d="M 8.7185878,4.0337352 L -2.2072895,0.016013256 L 8.7185884,-4.0017078 C 6.9730900,-1.6296469 6.9831476,1.6157441 8.7185878,4.0337352 z "
         transform="scale(0.6) rotate(180) translate(0,0)" />
    </marker>
  </defs>
  <sodipodi:namedview
     id="base"
     pagecolor="#ffffff"
     bordercolor="#666666"
     borderopacity="1.0"
     inkscape:pageopacity="0.0"
     inkscape:pageshadow="2"
     inkscape:zoom="1.9751849"
     inkscape:cx="13.547212"
     inkscape:cy="192.27116"
     inkscape:document-units="mm"
     inkscape:current-layer="layer1"
     showgrid="false"
     units="px"
     inkscape:window-width="1920"
     inkscape:window-height="1017"
     inkscape:window-x="0"
     inkscape:window-y="34"
     inkscape:window-maximized="1" />
  <metadata
     id="metadata5">
    <rdf:RDF>
      <cc:Work
         rdf:about="">
        <dc:format>image/svg+xml</dc:format>
        <dc:type
           rdf:resource="http://purl.org/dc/dcmitype/StillImage" />
        <dc:title></dc:title>
      </cc:Work>
    </rdf:RDF>
  </metadata>
  <g
     inkscape:label="Layer 1"
     inkscape:groupmode="layer"
     id="layer1"
     transform="translate(0,-212.33333)">
    <path
       style="opacity:1;vector-effect:none;fill:none;fill-opacity:1;stroke:#000000;stroke-width:0.26499999;stroke-linecap:round;stroke-linejoin:round;stroke-miterlimit:4;stroke-dasharray:none;stroke-dashoffset:0;stroke-opacity:1"
       d="M 5.9199731,263.48569 H 24.958607 c 0.288611,0 0.520958,0.23234 0.520958,0.52095 v 7.10397 c 0,0.28861 -0.232347,0.52096 -0.520958,0.52096 H 5.9199731 c -0.2886106,0 -0.5209577,-0.23235 -0.5209577,-0.52096 v -7.10397 c 0,-0.28861 0.2323471,-0.52095 0.5209577,-0.52095 z"
       id="rect815" />
    <path
       style="opacity:1;vector-effect:none;fill:none;fill-opacity:1;stroke:#000000;stroke-width:0.26458332;stroke-linecap:round;stroke-linejoin:round;stroke-miterlimit:4;stroke-dasharray:none;stroke-dashoffset:0;stroke-opacity:1"
       d="M 5.9199731,274.069 H 24.958607 c 0.288611,0 0.520958,0.23235 0.520958,0.52096 v 7.10397 c 0,0.28861 -0.232347,0.52095 -0.520958,0.52095 H 5.9199731 c -0.2886106,0 -0.5209577,-0.23234 -0.5209577,-0.52095 v -7.10397 c 0,-0.28861 0.2323471,-0.52096 0.5209577,-0.52096 z"
       id="rect815-3" />
    <g
       aria-label="rax"
       transform="matrix(0.26458333,0,0,0.26458333,-5.2916667,258.37085)"
       style="font-style:normal;font-variant:normal;font-weight:normal;font-stretch:normal;font-size:40px;line-height:1.25;font-family:'Gentium Plus';-inkscape-font-specification:'Gentium Plus';letter-spacing:0px;word-spacing:0px;fill:#000000;fill-opacity:1;stroke:none"
       id="flowRoot832">
      <path
         d="m 144.99219,27.355469 q 0.17578,0.117187 0.15625,0.683593 0,0.566407 -0.15625,1.308594 -0.13672,0.742188 -0.3711,1.523438 -0.23437,0.78125 -0.46875,1.308593 h -0.83984 q -0.11719,-0.78125 -0.33203,-1.328125 -0.21485,-0.546875 -0.50781,-0.859375 -0.27344,-0.332031 -0.625,-0.46875 -0.33204,-0.15625 -0.70313,-0.15625 -0.42969,0 -1.01562,0.371094 -0.56641,0.351563 -1.17188,1.132813 -0.60547,0.761718 -1.21094,1.972656 -0.58593,1.191406 -1.05468,2.851562 v 7.65625 q 0,0.292969 0.72265,0.605469 0.74219,0.3125 2.57813,0.585938 v 0.839843 h -8.96485 v -0.839843 q 1.28907,-0.292969 2.01172,-0.566407 0.72266,-0.292968 0.72266,-0.625 V 31.984375 q 0,-0.644531 -0.0391,-1.074219 -0.0391,-0.449219 -0.0977,-0.722656 -0.0586,-0.273438 -0.15625,-0.429688 -0.0781,-0.15625 -0.15625,-0.253906 -0.13672,-0.136719 -0.3125,-0.214844 -0.15625,-0.09766 -0.42969,-0.15625 -0.2539,-0.05859 -0.625,-0.07813 -0.37109,-0.03906 -0.91797,-0.07813 v -0.78125 q 1.26953,-0.332031 2.48047,-0.664062 1.23047,-0.351563 2.20703,-0.898438 l 0.6836,0.683594 0.2539,4.433594 q 0.52735,-1.074219 1.13282,-2.011719 0.625,-0.9375 1.32812,-1.621094 0.70313,-0.703125 1.46484,-1.09375 0.78125,-0.390625 1.6211,-0.390625 0.625,0 1.34765,0.15625 0.72266,0.15625 1.44532,0.566407 z"
         style=""
         id="path900" />
      <path
         d="m 152.6875,43.429687 q 1.17187,0 2.48047,-0.585937 1.32812,-0.605469 2.8125,-1.894531 v -5.058594 q -1.64063,0.273437 -2.71485,0.527344 -1.05468,0.253906 -1.73828,0.527343 -0.68359,0.253907 -1.09375,0.546875 -0.41015,0.292969 -0.72265,0.625 -0.50782,0.527344 -0.82032,1.210938 -0.3125,0.664062 -0.3125,1.582031 0,0.78125 0.23438,1.269531 0.23437,0.488282 0.56641,0.78125 0.33203,0.273438 0.68359,0.371094 0.37109,0.09766 0.625,0.09766 z m 11.21094,0.351563 q -1.66016,1.152344 -2.75391,1.660156 -1.07422,0.527344 -1.62109,0.527344 -0.64453,0 -1.07422,-0.898438 -0.42969,-0.898437 -0.46875,-2.480468 -0.87891,0.878906 -1.75781,1.523437 -0.87891,0.644531 -1.71875,1.054688 -0.83985,0.410156 -1.60157,0.605468 -0.74218,0.195313 -1.36718,0.195313 -0.70313,0 -1.44532,-0.234375 Q 149.34766,45.5 148.74219,44.992187 148.15625,44.484375 147.76562,43.683594 147.375,42.882812 147.375,41.75 q 0,-1.484375 0.50781,-2.480469 0.52735,-0.996094 1.25,-1.71875 0.46875,-0.46875 1.05469,-0.878906 0.60547,-0.429688 1.58203,-0.820313 0.99609,-0.390625 2.48047,-0.742187 1.48437,-0.351563 3.73047,-0.683594 v -2.753906 q 0,-0.664063 -0.15625,-1.230469 -0.15625,-0.585937 -0.52735,-0.996094 -0.37109,-0.429687 -1.01562,-0.644531 -0.625,-0.234375 -1.58203,-0.214844 -0.625,0.01953 -1.23047,0.214844 -0.60547,0.195313 -1.05469,0.546875 -0.44922,0.351563 -0.70312,0.839844 -0.25391,0.46875 -0.19532,1.054687 0.0195,0.175782 -0.41015,0.410157 -0.41016,0.214843 -0.9961,0.390625 -0.5664,0.175781 -1.13281,0.273437 -0.54687,0.09766 -0.78125,0.03906 l -0.27344,-0.761719 q 0.44922,-0.976563 1.36719,-1.875 0.91797,-0.898438 2.08985,-1.582031 1.1914,-0.683594 2.5,-1.09375 1.32812,-0.410157 2.55859,-0.410157 2.14844,0 3.30078,1.132813 1.17188,1.113281 1.17188,3.125 V 41.90625 q 0,0.820312 0.21484,1.171875 0.21484,0.351562 0.56641,0.351562 0.27343,0 0.70312,-0.09766 0.42969,-0.09766 1.21094,-0.429687 z"
         style=""
         id="path902" />
      <path
         d="m 176.16406,45.382812 v -0.839843 q 0.48828,-0.03906 0.91797,-0.117188 0.42969,-0.07813 0.66406,-0.253906 Q 178,43.996094 178,43.683594 q 0,-0.332032 -0.39063,-0.859375 l -3.86718,-5.253907 -3.69141,5.253907 q -0.37109,0.527343 -0.29297,0.859375 0.0781,0.3125 0.41016,0.488281 0.33203,0.175781 0.82031,0.253906 0.50781,0.07813 0.97656,0.117188 v 0.839843 h -7.40234 v -0.839843 q 0.78125,-0.117188 1.32812,-0.292969 0.54688,-0.195313 0.91797,-0.429688 0.39063,-0.253906 0.64453,-0.527343 Q 167.72656,43 167.94141,42.707031 l 4.74609,-6.601562 -4.58984,-6.289063 q -0.25391,-0.351562 -0.50782,-0.644531 -0.2539,-0.3125 -0.625,-0.527344 -0.35156,-0.234375 -0.8789,-0.371094 -0.52735,-0.15625 -1.3086,-0.214843 V 27.21875 h 8.20313 v 0.839844 q -0.60547,0.05859 -1.05469,0.175781 -0.42969,0.09766 -0.66406,0.292969 -0.21485,0.175781 -0.19531,0.488281 0.0391,0.292969 0.39062,0.761719 l 3.14453,4.335937 3.00781,-4.335937 q 0.35157,-0.46875 0.39063,-0.78125 0.0391,-0.3125 -0.17578,-0.488282 -0.19531,-0.195312 -0.625,-0.292968 -0.42969,-0.09766 -1.03516,-0.15625 V 27.21875 h 7.44141 v 0.839844 q -1.58203,0.117187 -2.46094,0.585937 -0.85937,0.449219 -1.36719,1.171875 l -4.10156,5.761719 5.21484,7.128906 Q 181.125,43 181.39844,43.292969 q 0.27343,0.273437 0.625,0.527343 0.37109,0.253907 0.85937,0.449219 0.48828,0.195313 1.13281,0.273438 v 0.839843 z"
         style=""
         id="path904" />
    </g>
    <g
       aria-label="rbx"
       transform="matrix(0.26458333,0,0,0.26458333,-5.2916672,268.95419)"
       style="font-style:normal;font-variant:normal;font-weight:normal;font-stretch:normal;font-size:40px;line-height:1.25;font-family:'Gentium Plus';-inkscape-font-specification:'Gentium Plus';letter-spacing:0px;word-spacing:0px;fill:#000000;fill-opacity:1;stroke:none"
       id="flowRoot832-6">
      <path
         d="m 144.99219,27.355469 q 0.17578,0.117187 0.15625,0.683593 0,0.566407 -0.15625,1.308594 -0.13672,0.742188 -0.3711,1.523438 -0.23437,0.78125 -0.46875,1.308593 h -0.83984 q -0.11719,-0.78125 -0.33203,-1.328125 -0.21485,-0.546875 -0.50781,-0.859375 -0.27344,-0.332031 -0.625,-0.46875 -0.33204,-0.15625 -0.70313,-0.15625 -0.42969,0 -1.01562,0.371094 -0.56641,0.351563 -1.17188,1.132813 -0.60547,0.761718 -1.21094,1.972656 -0.58593,1.191406 -1.05468,2.851562 v 7.65625 q 0,0.292969 0.72265,0.605469 0.74219,0.3125 2.57813,0.585938 v 0.839843 h -8.96485 v -0.839843 q 1.28907,-0.292969 2.01172,-0.566407 0.72266,-0.292968 0.72266,-0.625 V 31.984375 q 0,-0.644531 -0.0391,-1.074219 -0.0391,-0.449219 -0.0977,-0.722656 -0.0586,-0.273438 -0.15625,-0.429688 -0.0781,-0.15625 -0.15625,-0.253906 -0.13672,-0.136719 -0.3125,-0.214844 -0.15625,-0.09766 -0.42969,-0.15625 -0.2539,-0.05859 -0.625,-0.07813 -0.37109,-0.03906 -0.91797,-0.07813 v -0.78125 q 1.26953,-0.332031 2.48047,-0.664062 1.23047,-0.351563 2.20703,-0.898438 l 0.6836,0.683594 0.2539,4.433594 q 0.52735,-1.074219 1.13282,-2.011719 0.625,-0.9375 1.32812,-1.621094 0.70313,-0.703125 1.46484,-1.09375 0.78125,-0.390625 1.6211,-0.390625 0.625,0 1.34765,0.15625 0.72266,0.15625 1.44532,0.566407 z"
         style=""
         id="path907" />
      <path
         d="m 164.36719,35.773437 q 0,1.132813 -0.29297,2.324219 -0.29297,1.191406 -0.85938,2.324219 -0.5664,1.132812 -1.38672,2.148437 -0.82031,1.015625 -1.875,1.777344 -1.03515,0.742188 -2.28515,1.171875 -1.25,0.449219 -2.69531,0.449219 -0.3711,0 -1.03516,-0.175781 -0.64453,-0.15625 -1.50391,-0.46875 -0.83984,-0.3125 -1.83593,-0.761719 -0.9961,-0.46875 -2.05079,-1.054688 v -23.4375 q 0,-0.898437 -0.0977,-1.386718 -0.0977,-0.488282 -0.3711,-0.722657 -0.27343,-0.253906 -0.78125,-0.332031 -0.48828,-0.07813 -1.28906,-0.175781 v -0.78125 q 1.28906,-0.3125 2.46094,-0.625 1.17187,-0.332031 2.28516,-0.9375 l 0.19531,0.195313 q 0.11719,0.117187 0.23437,0.214843 0.13672,0.117188 0.29297,0.253907 v 15.410156 q 0.97656,-1.171875 1.9336,-2.03125 0.97656,-0.859375 1.85546,-1.40625 0.89844,-0.566407 1.66016,-0.839844 0.76172,-0.273438 1.32813,-0.273438 1.32812,0 2.4414,0.625 1.13281,0.625 1.9336,1.816407 0.82031,1.171875 1.26953,2.871093 0.46875,1.699219 0.46875,3.828125 z m -2.63672,1.640625 q 0,-1.953125 -0.41016,-3.457031 -0.39062,-1.523437 -1.07422,-2.558594 -0.66406,-1.035156 -1.54297,-1.582031 -0.8789,-0.546875 -1.8164,-0.546875 -0.35156,0 -0.9375,0.214844 -0.56641,0.195312 -1.28906,0.683594 -0.72266,0.46875 -1.54297,1.289062 -0.82032,0.800781 -1.64063,2.011719 v 7.949219 q 0.78125,0.585937 1.58203,0.976562 0.82032,0.390625 1.54297,0.625 0.74219,0.214844 1.32813,0.3125 0.60547,0.09766 0.95703,0.09766 1.1914,0 2.08984,-0.507812 0.89844,-0.527344 1.50391,-1.367188 0.625,-0.859375 0.9375,-1.933593 0.3125,-1.074219 0.3125,-2.207032 z"
         style=""
         id="path909" />
      <path
         d="m 178.11719,45.382812 v -0.839843 q 0.48828,-0.03906 0.91797,-0.117188 0.42968,-0.07813 0.66406,-0.253906 0.2539,-0.175781 0.2539,-0.488281 0,-0.332032 -0.39062,-0.859375 l -3.86719,-5.253907 -3.6914,5.253907 q -0.3711,0.527343 -0.29297,0.859375 0.0781,0.3125 0.41015,0.488281 0.33203,0.175781 0.82032,0.253906 0.50781,0.07813 0.97656,0.117188 v 0.839843 h -7.40235 v -0.839843 q 0.78125,-0.117188 1.32813,-0.292969 0.54687,-0.195313 0.91797,-0.429688 0.39062,-0.253906 0.64453,-0.527343 Q 169.67969,43 169.89453,42.707031 l 4.74609,-6.601562 -4.58984,-6.289063 q -0.25391,-0.351562 -0.50781,-0.644531 -0.25391,-0.3125 -0.625,-0.527344 -0.35156,-0.234375 -0.87891,-0.371094 -0.52734,-0.15625 -1.30859,-0.214843 V 27.21875 h 8.20312 v 0.839844 q -0.60547,0.05859 -1.05468,0.175781 -0.42969,0.09766 -0.66407,0.292969 -0.21484,0.175781 -0.19531,0.488281 0.0391,0.292969 0.39063,0.761719 l 3.14453,4.335937 3.00781,-4.335937 q 0.35156,-0.46875 0.39062,-0.78125 0.0391,-0.3125 -0.17578,-0.488282 -0.19531,-0.195312 -0.625,-0.292968 -0.42968,-0.09766 -1.03515,-0.15625 V 27.21875 h 7.4414 v 0.839844 q -1.58203,0.117187 -2.46093,0.585937 -0.85938,0.449219 -1.36719,1.171875 l -4.10156,5.761719 5.21484,7.128906 q 0.23437,0.292969 0.50781,0.585938 0.27344,0.273437 0.625,0.527343 0.3711,0.253907 0.85938,0.449219 0.48828,0.195313 1.13281,0.273438 v 0.839843 z"
         style=""
         id="path911" />
    </g>
    <g
       aria-label="5"
       transform="matrix(0.26458333,0,0,0.26458333,-21.305753,258.63361)"
       style="font-style:normal;font-variant:normal;font-weight:normal;font-stretch:normal;font-size:40px;line-height:1.25;font-family:'Gentium Plus';-inkscape-font-specification:'Gentium Plus';letter-spacing:0px;word-spacing:0px;fill:#8c8c8c;fill-opacity:1;stroke:none"
       id="flowRoot832-5">
      <path
         d="m 146.28125,37.375 q 0,1.699219 -0.52734,3.261719 -0.50782,1.542968 -1.50391,2.734375 -0.97656,1.191406 -2.42188,1.894531 -1.44531,0.703125 -3.28125,0.703125 -1.8164,0 -3.59375,-0.664063 -1.77734,-0.664062 -3.47656,-2.246093 L 132.16016,41.75 q 1.03515,0.722656 1.875,1.171875 0.85937,0.429687 1.58203,0.683594 0.72265,0.234375 1.32812,0.332031 0.60547,0.07813 1.17188,0.07813 1.26953,0 2.20703,-0.488281 0.95703,-0.488282 1.58203,-1.289063 0.625,-0.820312 0.9375,-1.855469 0.3125,-1.054687 0.3125,-2.167968 0,-1.328125 -0.33203,-2.421875 -0.3125,-1.09375 -0.97656,-1.855469 -0.64454,-0.78125 -1.66016,-1.210938 -0.99609,-0.429687 -2.36328,-0.429687 -0.41016,0 -0.9375,0.09766 -0.52735,0.09766 -1.11328,0.292969 -0.56641,0.195312 -1.15235,0.488281 -0.5664,0.292969 -1.07422,0.683594 l -0.91796,-0.644531 q 0.11718,-0.703125 0.27343,-1.621094 0.15625,-0.9375 0.3125,-1.972656 0.17578,-1.035157 0.33203,-2.109375 0.17579,-1.09375 0.3125,-2.109375 0.13672,-1.035157 0.23438,-1.953125 0.0977,-0.917969 0.13672,-1.601563 h 8.51562 q 0.56641,0 0.9961,-0.03906 0.42968,-0.05859 0.74218,-0.136719 0.35157,-0.07813 0.625,-0.175781 l 0.56641,0.566406 q -0.21484,0.3125 -0.50781,0.664062 -0.27344,0.332032 -0.56641,0.644532 -0.29297,0.3125 -0.58594,0.585937 -0.27343,0.253906 -0.50781,0.429688 h -7.55859 q -0.0391,0.566406 -0.13672,1.464843 -0.0977,0.878907 -0.23438,1.816407 -0.11718,0.917968 -0.2539,1.738281 -0.13672,0.820312 -0.21485,1.25 0.78125,-0.234375 1.83594,-0.371094 1.05469,-0.136719 2.05078,-0.136719 1.77735,0 3.125,0.605469 1.36719,0.585938 2.28516,1.582031 0.91797,0.996094 1.38672,2.304688 0.48828,1.308594 0.48828,2.734375 z"
         style=""
         id="path914" />
    </g>
    <g
       aria-label="6"
       transform="matrix(0.26458333,0,0,0.26458333,-21.504708,269.28413)"
       style="font-style:normal;font-variant:normal;font-weight:normal;font-stretch:normal;font-size:40px;line-height:1.25;font-family:'Gentium Plus';-inkscape-font-specification:'Gentium Plus';letter-spacing:0px;word-spacing:0px;fill:#8c8c8c;fill-opacity:1;stroke:none"
       id="flowRoot832-5-1">
      <path
         d="m 139.71875,32.492187 q -0.99609,0 -2.20703,0.566407 -1.19141,0.546875 -2.28516,1.855468 0,2.324219 0.3711,4.023438 0.39062,1.679687 1.09375,2.792969 0.70312,1.113281 1.69921,1.660156 0.9961,0.527344 2.20704,0.527344 1.05468,0 1.73828,-0.488282 0.70312,-0.507812 1.11328,-1.269531 0.42969,-0.78125 0.60547,-1.71875 0.17578,-0.957031 0.17578,-1.855469 0,-1.835937 -0.44922,-3.007812 -0.42969,-1.191406 -1.09375,-1.875 -0.66406,-0.683594 -1.46484,-0.9375 -0.78125,-0.273438 -1.50391,-0.273438 z m 7.44141,4.84375 q 0,0.917969 -0.21485,1.914063 -0.19531,0.996094 -0.625,1.953125 -0.41015,0.957031 -1.03515,1.816406 -0.60547,0.859375 -1.42579,1.523438 -0.80078,0.644531 -1.8164,1.035156 -1.01563,0.390625 -2.20703,0.390625 -1.60157,0 -3.00782,-0.703125 -1.40625,-0.722656 -2.46093,-2.011719 -1.05469,-1.289062 -1.66016,-3.085937 -0.60547,-1.816407 -0.60547,-4.023438 0,-2.753906 0.78125,-5.273437 0.80078,-2.539063 2.44141,-4.570313 1.64062,-2.03125 4.12109,-3.417969 2.5,-1.40625 5.89844,-1.894531 l 0.37109,1.152344 q -2.30468,0.527344 -4.10156,1.601562 -1.77734,1.054688 -3.06641,2.460938 -1.26953,1.40625 -2.07031,3.085937 -0.78125,1.660157 -1.07422,3.398438 0.6836,-0.664063 1.38672,-1.113281 0.72266,-0.449219 1.38672,-0.722657 0.68359,-0.273437 1.28906,-0.390625 0.60547,-0.117187 1.05469,-0.117187 1.58203,0 2.8125,0.488281 1.23047,0.488281 2.07031,1.40625 0.85938,0.898438 1.3086,2.207031 0.44922,1.289063 0.44922,2.890625 z"
         style=""
         id="path917" />
    </g>
    <path
       style="opacity:1;vector-effect:none;fill:#e8b3ff;fill-opacity:1;stroke:#000000;stroke-width:0.26458332;stroke-linecap:round;stroke-linejoin:round;stroke-miterlimit:4;stroke-dasharray:none;stroke-dashoffset:0;stroke-opacity:1"
       d="M 5.9199731,284.65231 H 24.958607 c 0.288611,0 0.520958,0.23235 0.520958,0.52096 v 7.10397 c 0,0.28861 -0.232347,0.52096 -0.520958,0.52096 H 5.9199731 c -0.2886106,0 -0.5209577,-0.23235 -0.5209577,-0.52096 v -7.10397 c 0,-0.28861 0.2323471,-0.52096 0.5209577,-0.52096 z"
       id="rect815-3-9" />
    <g
       aria-label="rdx"
       transform="matrix(0.26458333,0,0,0.26458333,-5.2916671,279.53753)"
       style="font-style:normal;font-variant:normal;font-weight:normal;font-stretch:normal;font-size:40px;line-height:1.25;font-family:'Gentium Plus';-inkscape-font-specification:'Gentium Plus';letter-spacing:0px;word-spacing:0px;fill:#000000;fill-opacity:1;stroke:none"
       id="flowRoot832-6-3">
      <path
         d="m 144.99219,27.355469 q 0.17578,0.117187 0.15625,0.683593 0,0.566407 -0.15625,1.308594 -0.13672,0.742188 -0.3711,1.523438 -0.23437,0.78125 -0.46875,1.308593 h -0.83984 q -0.11719,-0.78125 -0.33203,-1.328125 -0.21485,-0.546875 -0.50781,-0.859375 -0.27344,-0.332031 -0.625,-0.46875 -0.33204,-0.15625 -0.70313,-0.15625 -0.42969,0 -1.01562,0.371094 -0.56641,0.351563 -1.17188,1.132813 -0.60547,0.761718 -1.21094,1.972656 -0.58593,1.191406 -1.05468,2.851562 v 7.65625 q 0,0.292969 0.72265,0.605469 0.74219,0.3125 2.57813,0.585938 v 0.839843 h -8.96485 v -0.839843 q 1.28907,-0.292969 2.01172,-0.566407 0.72266,-0.292968 0.72266,-0.625 V 31.984375 q 0,-0.644531 -0.0391,-1.074219 -0.0391,-0.449219 -0.0977,-0.722656 -0.0586,-0.273438 -0.15625,-0.429688 -0.0781,-0.15625 -0.15625,-0.253906 -0.13672,-0.136719 -0.3125,-0.214844 -0.15625,-0.09766 -0.42969,-0.15625 -0.2539,-0.05859 -0.625,-0.07813 -0.37109,-0.03906 -0.91797,-0.07813 v -0.78125 q 1.26953,-0.332031 2.48047,-0.664062 1.23047,-0.351563 2.20703,-0.898438 l 0.6836,0.683594 0.2539,4.433594 q 0.52735,-1.074219 1.13282,-2.011719 0.625,-0.9375 1.32812,-1.621094 0.70313,-0.703125 1.46484,-1.09375 0.78125,-0.390625 1.6211,-0.390625 0.625,0 1.34765,0.15625 0.72266,0.15625 1.44532,0.566407 z"
         style=""
         id="path921" />
      <path
         d="m 166.33984,43.742187 q -0.89843,0.605469 -1.60156,1.035157 -0.68359,0.410156 -1.21094,0.664062 -0.50781,0.273438 -0.8789,0.390625 -0.3711,0.136719 -0.64453,0.136719 -0.64454,0 -1.05469,-0.878906 -0.41016,-0.878907 -0.54688,-3.007813 -0.74218,0.898438 -1.48437,1.621094 -0.72266,0.722656 -1.50391,1.230469 -0.76172,0.488281 -1.62109,0.761718 -0.85938,0.273438 -1.85547,0.273438 -1.09375,0 -2.24609,-0.625 -1.15235,-0.644531 -2.12891,-1.835938 -0.95703,-1.191406 -1.58203,-2.910156 -0.60547,-1.71875 -0.60547,-3.886719 0,-1.113281 0.29297,-2.304687 0.3125,-1.191406 0.8789,-2.304688 0.56641,-1.113281 1.38672,-2.109375 0.82032,-0.996093 1.83594,-1.738281 1.01563,-0.761719 2.22656,-1.191406 1.21094,-0.429688 2.57813,-0.429688 0.91797,0 1.8164,0.234375 0.91797,0.214844 1.97266,0.996094 V 20.5 q 0,-1.074219 -0.0586,-1.699219 -0.0586,-0.644531 -0.33203,-0.976562 -0.27344,-0.351563 -0.83985,-0.46875 -0.5664,-0.136719 -1.60156,-0.214844 v -0.761719 q 1.60156,-0.214844 2.87109,-0.566406 1.26953,-0.371094 2.28516,-0.703125 l 0.60547,0.585938 v 24.726562 q 0,0.683594 0.0195,1.171875 0.0391,0.488281 0.0977,0.820312 0.0586,0.332032 0.13671,0.546875 0.0781,0.214844 0.19532,0.351563 0.17578,0.214844 0.66406,0.136719 0.50781,-0.09766 1.67969,-0.546875 z m -5.97656,-3.457031 V 31.125 q -0.64453,-1.113281 -1.81641,-1.71875 -1.17187,-0.625 -2.57812,-0.625 -1.25,0 -2.28516,0.46875 -1.03515,0.449219 -1.79687,1.367187 -0.74219,0.917969 -1.17188,2.285157 -0.41015,1.367187 -0.41015,3.203125 0,1.660156 0.46875,3.027343 0.48828,1.347657 1.23047,2.304688 0.74218,0.957031 1.62109,1.484375 0.89844,0.507812 1.69922,0.507812 0.66406,0 1.30859,-0.273437 0.64453,-0.273438 1.26953,-0.703125 0.625,-0.449219 1.23047,-1.015625 0.625,-0.566406 1.23047,-1.152344 z"
         style=""
         id="path923" />
      <path
         d="m 178.58594,45.382812 v -0.839843 q 0.48828,-0.03906 0.91797,-0.117188 0.42968,-0.07813 0.66406,-0.253906 0.2539,-0.175781 0.2539,-0.488281 0,-0.332032 -0.39062,-0.859375 l -3.86719,-5.253907 -3.6914,5.253907 q -0.3711,0.527343 -0.29297,0.859375 0.0781,0.3125 0.41015,0.488281 0.33203,0.175781 0.82032,0.253906 0.50781,0.07813 0.97656,0.117188 v 0.839843 h -7.40235 v -0.839843 q 0.78125,-0.117188 1.32813,-0.292969 0.54687,-0.195313 0.91797,-0.429688 0.39062,-0.253906 0.64453,-0.527343 Q 170.14844,43 170.36328,42.707031 l 4.74609,-6.601562 -4.58984,-6.289063 q -0.25391,-0.351562 -0.50781,-0.644531 -0.25391,-0.3125 -0.625,-0.527344 -0.35156,-0.234375 -0.87891,-0.371094 -0.52734,-0.15625 -1.30859,-0.214843 V 27.21875 h 8.20312 v 0.839844 q -0.60547,0.05859 -1.05468,0.175781 -0.42969,0.09766 -0.66407,0.292969 -0.21484,0.175781 -0.19531,0.488281 0.0391,0.292969 0.39063,0.761719 l 3.14453,4.335937 3.00781,-4.335937 q 0.35156,-0.46875 0.39062,-0.78125 0.0391,-0.3125 -0.17578,-0.488282 -0.19531,-0.195312 -0.625,-0.292968 -0.42968,-0.09766 -1.03515,-0.15625 V 27.21875 h 7.4414 v 0.839844 q -1.58203,0.117187 -2.46093,0.585937 -0.85938,0.449219 -1.36719,1.171875 l -4.10156,5.761719 5.21484,7.128906 q 0.23437,0.292969 0.50781,0.585938 0.27344,0.273437 0.625,0.527343 0.3711,0.253907 0.85938,0.449219 0.48828,0.195313 1.13281,0.273438 v 0.839843 z"
         style=""
         id="path925" />
    </g>
    <g
       aria-label="add rax, rbx, rdx"
       transform="matrix(0.26458333,0,0,0.26458333,-52.310461,244.66934)"
       style="font-style:normal;font-variant:normal;font-weight:normal;font-stretch:normal;font-size:32px;line-height:1.25;font-family:'Gentium Plus';-inkscape-font-specification:'Gentium Plus';letter-spacing:0px;word-spacing:0px;fill:#646464;fill-opacity:1;stroke:none"
       id="flowRoot951">
      <path
         d="m 268.84082,45.894585 -0.51562,-2.4375 h -0.125 q -1.28125,1.609375 -2.5625,2.1875 -1.26563,0.5625 -3.17188,0.5625 -2.54687,0 -4,-1.3125 -1.4375,-1.3125 -1.4375,-3.734375 0,-5.1875 8.29688,-5.4375 l 2.90625,-0.09375 v -1.0625 q 0,-2.015625 -0.875,-2.96875 -0.85938,-0.96875 -2.76563,-0.96875 -2.14062,0 -4.84375,1.3125 l -0.79687,-1.984375 q 1.26562,-0.6875 2.76562,-1.078125 1.51563,-0.390625 3.03125,-0.390625 3.0625,0 4.53125,1.359375 1.48438,1.359375 1.48438,4.359375 v 11.6875 z m -5.85937,-1.828125 q 2.42187,0 3.79687,-1.328125 1.39063,-1.328125 1.39063,-3.71875 V 37.47271 l -2.59375,0.109375 q -3.09375,0.109375 -4.46875,0.96875 -1.35938,0.84375 -1.35938,2.640625 0,1.40625 0.84375,2.140625 0.85938,0.734375 2.39063,0.734375 z"
         style="font-style:normal;font-variant:normal;font-weight:normal;font-stretch:normal;font-family:'Open Sans';-inkscape-font-specification:'Open Sans';text-align:center;text-anchor:middle;fill:#646464;fill-opacity:1"
         id="path928" />
      <path
         d="m 287.77832,43.59771 h -0.14062 q -1.79688,2.609375 -5.375,2.609375 -3.35938,0 -5.23438,-2.296875 -1.85937,-2.296875 -1.85937,-6.53125 0,-4.234375 1.875,-6.578125 1.875,-2.34375 5.21875,-2.34375 3.48437,0 5.34375,2.53125 h 0.20312 l -0.10937,-1.234375 -0.0625,-1.203125 v -6.96875 h 2.59375 v 24.3125 h -2.10938 z m -5.1875,0.4375 q 2.65625,0 3.84375,-1.4375 1.20313,-1.453125 1.20313,-4.671875 V 37.37896 q 0,-3.640625 -1.21875,-5.1875 -1.20313,-1.5625 -3.85938,-1.5625 -2.28125,0 -3.5,1.78125 -1.20312,1.765625 -1.20312,5 0,3.28125 1.20312,4.953125 1.20313,1.671875 3.53125,1.671875 z"
         style="font-style:normal;font-variant:normal;font-weight:normal;font-stretch:normal;font-family:'Open Sans';-inkscape-font-specification:'Open Sans';text-align:center;text-anchor:middle;fill:#646464;fill-opacity:1"
         id="path930" />
      <path
         d="m 307.40332,43.59771 h -0.14062 q -1.79688,2.609375 -5.375,2.609375 -3.35938,0 -5.23438,-2.296875 -1.85937,-2.296875 -1.85937,-6.53125 0,-4.234375 1.875,-6.578125 1.875,-2.34375 5.21875,-2.34375 3.48437,0 5.34375,2.53125 h 0.20312 l -0.10937,-1.234375 -0.0625,-1.203125 v -6.96875 h 2.59375 v 24.3125 h -2.10938 z m -5.1875,0.4375 q 2.65625,0 3.84375,-1.4375 1.20313,-1.453125 1.20313,-4.671875 V 37.37896 q 0,-3.640625 -1.21875,-5.1875 -1.20313,-1.5625 -3.85938,-1.5625 -2.28125,0 -3.5,1.78125 -1.20312,1.765625 -1.20312,5 0,3.28125 1.20312,4.953125 1.20313,1.671875 3.53125,1.671875 z"
         style="font-style:normal;font-variant:normal;font-weight:normal;font-stretch:normal;font-family:'Open Sans';-inkscape-font-specification:'Open Sans';text-align:center;text-anchor:middle;fill:#646464;fill-opacity:1"
         id="path932" />
      <path
         d="m 331.49707,28.457085 q 1.14063,0 2.04688,0.1875 l -0.35938,2.40625 q -1.0625,-0.234375 -1.875,-0.234375 -2.07812,0 -3.5625,1.6875 -1.46875,1.6875 -1.46875,4.203125 v 9.1875 h -2.59375 v -17.125 h 2.14063 l 0.29687,3.171875 h 0.125 q 0.95313,-1.671875 2.29688,-2.578125 1.34375,-0.90625 2.95312,-0.90625 z"
         style="font-style:normal;font-variant:normal;font-weight:normal;font-stretch:normal;font-family:'Open Sans';-inkscape-font-specification:'Open Sans';text-align:center;text-anchor:middle;fill:#646464;fill-opacity:1"
         id="path934" />
      <path
         d="m 347.27832,45.894585 -0.51562,-2.4375 h -0.125 q -1.28125,1.609375 -2.5625,2.1875 -1.26563,0.5625 -3.17188,0.5625 -2.54687,0 -4,-1.3125 -1.4375,-1.3125 -1.4375,-3.734375 0,-5.1875 8.29688,-5.4375 l 2.90625,-0.09375 v -1.0625 q 0,-2.015625 -0.875,-2.96875 -0.85938,-0.96875 -2.76563,-0.96875 -2.14062,0 -4.84375,1.3125 l -0.79687,-1.984375 q 1.26562,-0.6875 2.76562,-1.078125 1.51563,-0.390625 3.03125,-0.390625 3.0625,0 4.53125,1.359375 1.48438,1.359375 1.48438,4.359375 v 11.6875 z m -5.85937,-1.828125 q 2.42187,0 3.79687,-1.328125 1.39063,-1.328125 1.39063,-3.71875 V 37.47271 l -2.59375,0.109375 q -3.09375,0.109375 -4.46875,0.96875 -1.35938,0.84375 -1.35938,2.640625 0,1.40625 0.84375,2.140625 0.85938,0.734375 2.39063,0.734375 z"
         style="font-style:normal;font-variant:normal;font-weight:normal;font-stretch:normal;font-family:'Open Sans';-inkscape-font-specification:'Open Sans';text-align:center;text-anchor:middle;fill:#646464;fill-opacity:1"
         id="path936" />
      <path
         d="m 358.68457,37.12896 -5.95312,-8.359375 h 2.95312 l 4.51563,6.5625 4.5,-6.5625 h 2.92187 l -5.95312,8.359375 6.26562,8.765625 h -2.9375 l -4.79687,-6.9375 -4.84375,6.9375 h -2.9375 z"
         style="font-style:normal;font-variant:normal;font-weight:normal;font-stretch:normal;font-family:'Open Sans';-inkscape-font-specification:'Open Sans';text-align:center;text-anchor:middle;fill:#646464;fill-opacity:1"
         id="path938" />
      <path
         d="m 374.02832,42.175835 0.23438,0.359375 q -0.40625,1.5625 -1.17188,3.625 -0.76562,2.078125 -1.59375,3.859375 h -1.95312 q 0.42187,-1.625 0.92187,-4.015625 0.51563,-2.390625 0.71875,-3.828125 z"
         style="font-style:normal;font-variant:normal;font-weight:normal;font-stretch:normal;font-family:'Open Sans';-inkscape-font-specification:'Open Sans';text-align:center;text-anchor:middle;fill:#646464;fill-opacity:1"
         id="path940" />
      <path
         d="m 395.30957,28.457085 q 1.14063,0 2.04688,0.1875 l -0.35938,2.40625 q -1.0625,-0.234375 -1.875,-0.234375 -2.07812,0 -3.5625,1.6875 -1.46875,1.6875 -1.46875,4.203125 v 9.1875 h -2.59375 v -17.125 h 2.14063 l 0.29687,3.171875 h 0.125 q 0.95313,-1.671875 2.29688,-2.578125 1.34375,-0.90625 2.95312,-0.90625 z"
         style="font-style:normal;font-variant:normal;font-weight:normal;font-stretch:normal;font-family:'Open Sans';-inkscape-font-specification:'Open Sans';text-align:center;text-anchor:middle;fill:#646464;fill-opacity:1"
         id="path942" />
      <path
         d="m 408.52832,28.488335 q 3.375,0 5.23438,2.3125 1.875,2.296875 1.875,6.515625 0,4.21875 -1.89063,6.5625 -1.875,2.328125 -5.21875,2.328125 -1.67187,0 -3.0625,-0.609375 -1.375,-0.625 -2.3125,-1.90625 h -0.1875 l -0.54687,2.203125 h -1.85938 v -24.3125 h 2.59375 v 5.90625 q 0,1.984375 -0.125,3.5625 h 0.125 q 1.8125,-2.5625 5.375,-2.5625 z m -0.375,2.171875 q -2.65625,0 -3.82812,1.53125 -1.17188,1.515625 -1.17188,5.125 0,3.609375 1.20313,5.171875 1.20312,1.546875 3.85937,1.546875 2.39063,0 3.5625,-1.734375 1.17188,-1.75 1.17188,-5.015625 0,-3.34375 -1.17188,-4.984375 -1.17187,-1.640625 -3.625,-1.640625 z"
         style="font-style:normal;font-variant:normal;font-weight:normal;font-stretch:normal;font-family:'Open Sans';-inkscape-font-specification:'Open Sans';text-align:center;text-anchor:middle;fill:#646464;fill-opacity:1"
         id="path944" />
      <path
         d="m 424.30957,37.12896 -5.95312,-8.359375 h 2.95312 l 4.51563,6.5625 4.5,-6.5625 h 2.92187 l -5.95312,8.359375 6.26562,8.765625 h -2.9375 l -4.79687,-6.9375 -4.84375,6.9375 h -2.9375 z"
         style="font-style:normal;font-variant:normal;font-weight:normal;font-stretch:normal;font-family:'Open Sans';-inkscape-font-specification:'Open Sans';text-align:center;text-anchor:middle;fill:#646464;fill-opacity:1"
         id="path946" />
      <path
         d="m 439.65332,42.175835 0.23438,0.359375 q -0.40625,1.5625 -1.17188,3.625 -0.76562,2.078125 -1.59375,3.859375 h -1.95312 q 0.42187,-1.625 0.92187,-4.015625 0.51563,-2.390625 0.71875,-3.828125 z"
         style="font-style:normal;font-variant:normal;font-weight:normal;font-stretch:normal;font-family:'Open Sans';-inkscape-font-specification:'Open Sans';text-align:center;text-anchor:middle;fill:#646464;fill-opacity:1"
         id="path948" />
      <path
         d="m 460.93457,28.457085 q 1.14063,0 2.04688,0.1875 l -0.35938,2.40625 q -1.0625,-0.234375 -1.875,-0.234375 -2.07812,0 -3.5625,1.6875 -1.46875,1.6875 -1.46875,4.203125 v 9.1875 h -2.59375 v -17.125 h 2.14063 l 0.29687,3.171875 h 0.125 q 0.95313,-1.671875 2.29688,-2.578125 1.34375,-0.90625 2.95312,-0.90625 z"
         style="font-style:normal;font-variant:normal;font-weight:normal;font-stretch:normal;font-family:'Open Sans';-inkscape-font-specification:'Open Sans';text-align:center;text-anchor:middle;fill:#646464;fill-opacity:1"
         id="path950" />
      <path
         d="m 477.84082,43.59771 h -0.14062 q -1.79688,2.609375 -5.375,2.609375 -3.35938,0 -5.23438,-2.296875 -1.85937,-2.296875 -1.85937,-6.53125 0,-4.234375 1.875,-6.578125 1.875,-2.34375 5.21875,-2.34375 3.48437,0 5.34375,2.53125 h 0.20312 l -0.10937,-1.234375 -0.0625,-1.203125 v -6.96875 h 2.59375 v 24.3125 h -2.10938 z m -5.1875,0.4375 q 2.65625,0 3.84375,-1.4375 1.20313,-1.453125 1.20313,-4.671875 V 37.37896 q 0,-3.640625 -1.21875,-5.1875 -1.20313,-1.5625 -3.85938,-1.5625 -2.28125,0 -3.5,1.78125 -1.20312,1.765625 -1.20312,5 0,3.28125 1.20312,4.953125 1.20313,1.671875 3.53125,1.671875 z"
         style="font-style:normal;font-variant:normal;font-weight:normal;font-stretch:normal;font-family:'Open Sans';-inkscape-font-specification:'Open Sans';text-align:center;text-anchor:middle;fill:#646464;fill-opacity:1"
         id="path952" />
      <path
         d="m 489.93457,37.12896 -5.95312,-8.359375 h 2.95312 l 4.51563,6.5625 4.5,-6.5625 h 2.92187 l -5.95312,8.359375 6.26562,8.765625 h -2.9375 l -4.79687,-6.9375 -4.84375,6.9375 h -2.9375 z"
         style="font-style:normal;font-variant:normal;font-weight:normal;font-stretch:normal;font-family:'Open Sans';-inkscape-font-specification:'Open Sans';text-align:center;text-anchor:middle;fill:#646464;fill-opacity:1"
         id="path954" />
    </g>
    <path
       style="opacity:1;vector-effect:none;fill:#d0d0ff;fill-opacity:1;stroke:#000000;stroke-width:0.26458332;stroke-linecap:round;stroke-linejoin:round;stroke-miterlimit:4;stroke-dasharray:none;stroke-dashoffset:0;stroke-opacity:1"
       d="M 5.9199731,215.86061 H 24.958607 c 0.288611,0 0.520958,0.23235 0.520958,0.52096 v 7.10397 c 0,0.28861 -0.232347,0.52095 -0.520958,0.52095 H 5.9199731 c -0.2886106,0 -0.5209577,-0.23234 -0.5209577,-0.52095 v -7.10397 c 0,-0.28861 0.2323471,-0.52096 0.5209577,-0.52096 z"
       id="rect815-7" />
    <path
       style="opacity:1;vector-effect:none;fill:#ffd0d0;fill-opacity:1;stroke:#000000;stroke-width:0.26458332;stroke-linecap:round;stroke-linejoin:round;stroke-miterlimit:4;stroke-dasharray:none;stroke-dashoffset:0;stroke-opacity:1"
       d="M 5.9199731,226.44395 H 24.958607 c 0.288611,0 0.520958,0.23235 0.520958,0.52096 v 7.10397 c 0,0.28861 -0.232347,0.52096 -0.520958,0.52096 H 5.9199731 c -0.2886106,0 -0.5209577,-0.23235 -0.5209577,-0.52096 v -7.10397 c 0,-0.28861 0.2323471,-0.52096 0.5209577,-0.52096 z"
       id="rect815-3-92" />
    <g
       aria-label="rax"
       transform="matrix(0.26458333,0,0,0.26458333,-5.2916671,210.74582)"
       style="font-style:normal;font-variant:normal;font-weight:normal;font-stretch:normal;font-size:40px;line-height:1.25;font-family:'Gentium Plus';-inkscape-font-specification:'Gentium Plus';letter-spacing:0px;word-spacing:0px;fill:#000000;fill-opacity:1;stroke:none"
       id="flowRoot832-0">
      <path
         d="m 144.99219,27.355469 q 0.17578,0.117187 0.15625,0.683593 0,0.566407 -0.15625,1.308594 -0.13672,0.742188 -0.3711,1.523438 -0.23437,0.78125 -0.46875,1.308593 h -0.83984 q -0.11719,-0.78125 -0.33203,-1.328125 -0.21485,-0.546875 -0.50781,-0.859375 -0.27344,-0.332031 -0.625,-0.46875 -0.33204,-0.15625 -0.70313,-0.15625 -0.42969,0 -1.01562,0.371094 -0.56641,0.351563 -1.17188,1.132813 -0.60547,0.761718 -1.21094,1.972656 -0.58593,1.191406 -1.05468,2.851562 v 7.65625 q 0,0.292969 0.72265,0.605469 0.74219,0.3125 2.57813,0.585938 v 0.839843 h -8.96485 v -0.839843 q 1.28907,-0.292969 2.01172,-0.566407 0.72266,-0.292968 0.72266,-0.625 V 31.984375 q 0,-0.644531 -0.0391,-1.074219 -0.0391,-0.449219 -0.0977,-0.722656 -0.0586,-0.273438 -0.15625,-0.429688 -0.0781,-0.15625 -0.15625,-0.253906 -0.13672,-0.136719 -0.3125,-0.214844 -0.15625,-0.09766 -0.42969,-0.15625 -0.2539,-0.05859 -0.625,-0.07813 -0.37109,-0.03906 -0.91797,-0.07813 v -0.78125 q 1.26953,-0.332031 2.48047,-0.664062 1.23047,-0.351563 2.20703,-0.898438 l 0.6836,0.683594 0.2539,4.433594 q 0.52735,-1.074219 1.13282,-2.011719 0.625,-0.9375 1.32812,-1.621094 0.70313,-0.703125 1.46484,-1.09375 0.78125,-0.390625 1.6211,-0.390625 0.625,0 1.34765,0.15625 0.72266,0.15625 1.44532,0.566407 z"
         style=""
         id="path959" />
      <path
         d="m 152.6875,43.429687 q 1.17187,0 2.48047,-0.585937 1.32812,-0.605469 2.8125,-1.894531 v -5.058594 q -1.64063,0.273437 -2.71485,0.527344 -1.05468,0.253906 -1.73828,0.527343 -0.68359,0.253907 -1.09375,0.546875 -0.41015,0.292969 -0.72265,0.625 -0.50782,0.527344 -0.82032,1.210938 -0.3125,0.664062 -0.3125,1.582031 0,0.78125 0.23438,1.269531 0.23437,0.488282 0.56641,0.78125 0.33203,0.273438 0.68359,0.371094 0.37109,0.09766 0.625,0.09766 z m 11.21094,0.351563 q -1.66016,1.152344 -2.75391,1.660156 -1.07422,0.527344 -1.62109,0.527344 -0.64453,0 -1.07422,-0.898438 -0.42969,-0.898437 -0.46875,-2.480468 -0.87891,0.878906 -1.75781,1.523437 -0.87891,0.644531 -1.71875,1.054688 -0.83985,0.410156 -1.60157,0.605468 -0.74218,0.195313 -1.36718,0.195313 -0.70313,0 -1.44532,-0.234375 Q 149.34766,45.5 148.74219,44.992187 148.15625,44.484375 147.76562,43.683594 147.375,42.882812 147.375,41.75 q 0,-1.484375 0.50781,-2.480469 0.52735,-0.996094 1.25,-1.71875 0.46875,-0.46875 1.05469,-0.878906 0.60547,-0.429688 1.58203,-0.820313 0.99609,-0.390625 2.48047,-0.742187 1.48437,-0.351563 3.73047,-0.683594 v -2.753906 q 0,-0.664063 -0.15625,-1.230469 -0.15625,-0.585937 -0.52735,-0.996094 -0.37109,-0.429687 -1.01562,-0.644531 -0.625,-0.234375 -1.58203,-0.214844 -0.625,0.01953 -1.23047,0.214844 -0.60547,0.195313 -1.05469,0.546875 -0.44922,0.351563 -0.70312,0.839844 -0.25391,0.46875 -0.19532,1.054687 0.0195,0.175782 -0.41015,0.410157 -0.41016,0.214843 -0.9961,0.390625 -0.5664,0.175781 -1.13281,0.273437 -0.54687,0.09766 -0.78125,0.03906 l -0.27344,-0.761719 q 0.44922,-0.976563 1.36719,-1.875 0.91797,-0.898438 2.08985,-1.582031 1.1914,-0.683594 2.5,-1.09375 1.32812,-0.410157 2.55859,-0.410157 2.14844,0 3.30078,1.132813 1.17188,1.113281 1.17188,3.125 V 41.90625 q 0,0.820312 0.21484,1.171875 0.21484,0.351562 0.56641,0.351562 0.27343,0 0.70312,-0.09766 0.42969,-0.09766 1.21094,-0.429687 z"
         style=""
         id="path961" />
      <path
         d="m 176.16406,45.382812 v -0.839843 q 0.48828,-0.03906 0.91797,-0.117188 0.42969,-0.07813 0.66406,-0.253906 Q 178,43.996094 178,43.683594 q 0,-0.332032 -0.39063,-0.859375 l -3.86718,-5.253907 -3.69141,5.253907 q -0.37109,0.527343 -0.29297,0.859375 0.0781,0.3125 0.41016,0.488281 0.33203,0.175781 0.82031,0.253906 0.50781,0.07813 0.97656,0.117188 v 0.839843 h -7.40234 v -0.839843 q 0.78125,-0.117188 1.32812,-0.292969 0.54688,-0.195313 0.91797,-0.429688 0.39063,-0.253906 0.64453,-0.527343 Q 167.72656,43 167.94141,42.707031 l 4.74609,-6.601562 -4.58984,-6.289063 q -0.25391,-0.351562 -0.50782,-0.644531 -0.2539,-0.3125 -0.625,-0.527344 -0.35156,-0.234375 -0.8789,-0.371094 -0.52735,-0.15625 -1.3086,-0.214843 V 27.21875 h 8.20313 v 0.839844 q -0.60547,0.05859 -1.05469,0.175781 -0.42969,0.09766 -0.66406,0.292969 -0.21485,0.175781 -0.19531,0.488281 0.0391,0.292969 0.39062,0.761719 l 3.14453,4.335937 3.00781,-4.335937 q 0.35157,-0.46875 0.39063,-0.78125 0.0391,-0.3125 -0.17578,-0.488282 -0.19531,-0.195312 -0.625,-0.292968 -0.42969,-0.09766 -1.03516,-0.15625 V 27.21875 h 7.44141 v 0.839844 q -1.58203,0.117187 -2.46094,0.585937 -0.85937,0.449219 -1.36719,1.171875 l -4.10156,5.761719 5.21484,7.128906 Q 181.125,43 181.39844,43.292969 q 0.27343,0.273437 0.625,0.527343 0.37109,0.253907 0.85937,0.449219 0.48828,0.195313 1.13281,0.273438 v 0.839843 z"
         style=""
         id="path963" />
    </g>
    <g
       aria-label="rbx"
       transform="matrix(0.26458333,0,0,0.26458333,-5.2916671,221.32916)"
       style="font-style:normal;font-variant:normal;font-weight:normal;font-stretch:normal;font-size:40px;line-height:1.25;font-family:'Gentium Plus';-inkscape-font-specification:'Gentium Plus';letter-spacing:0px;word-spacing:0px;fill:#000000;fill-opacity:1;stroke:none"
       id="flowRoot832-6-5">
      <path
         d="m 144.99219,27.355469 q 0.17578,0.117187 0.15625,0.683593 0,0.566407 -0.15625,1.308594 -0.13672,0.742188 -0.3711,1.523438 -0.23437,0.78125 -0.46875,1.308593 h -0.83984 q -0.11719,-0.78125 -0.33203,-1.328125 -0.21485,-0.546875 -0.50781,-0.859375 -0.27344,-0.332031 -0.625,-0.46875 -0.33204,-0.15625 -0.70313,-0.15625 -0.42969,0 -1.01562,0.371094 -0.56641,0.351563 -1.17188,1.132813 -0.60547,0.761718 -1.21094,1.972656 -0.58593,1.191406 -1.05468,2.851562 v 7.65625 q 0,0.292969 0.72265,0.605469 0.74219,0.3125 2.57813,0.585938 v 0.839843 h -8.96485 v -0.839843 q 1.28907,-0.292969 2.01172,-0.566407 0.72266,-0.292968 0.72266,-0.625 V 31.984375 q 0,-0.644531 -0.0391,-1.074219 -0.0391,-0.449219 -0.0977,-0.722656 -0.0586,-0.273438 -0.15625,-0.429688 -0.0781,-0.15625 -0.15625,-0.253906 -0.13672,-0.136719 -0.3125,-0.214844 -0.15625,-0.09766 -0.42969,-0.15625 -0.2539,-0.05859 -0.625,-0.07813 -0.37109,-0.03906 -0.91797,-0.07813 v -0.78125 q 1.26953,-0.332031 2.48047,-0.664062 1.23047,-0.351563 2.20703,-0.898438 l 0.6836,0.683594 0.2539,4.433594 q 0.52735,-1.074219 1.13282,-2.011719 0.625,-0.9375 1.32812,-1.621094 0.70313,-0.703125 1.46484,-1.09375 0.78125,-0.390625 1.6211,-0.390625 0.625,0 1.34765,0.15625 0.72266,0.15625 1.44532,0.566407 z"
         style=""
         id="path966" />
      <path
         d="m 164.36719,35.773437 q 0,1.132813 -0.29297,2.324219 -0.29297,1.191406 -0.85938,2.324219 -0.5664,1.132812 -1.38672,2.148437 -0.82031,1.015625 -1.875,1.777344 -1.03515,0.742188 -2.28515,1.171875 -1.25,0.449219 -2.69531,0.449219 -0.3711,0 -1.03516,-0.175781 -0.64453,-0.15625 -1.50391,-0.46875 -0.83984,-0.3125 -1.83593,-0.761719 -0.9961,-0.46875 -2.05079,-1.054688 v -23.4375 q 0,-0.898437 -0.0977,-1.386718 -0.0977,-0.488282 -0.3711,-0.722657 -0.27343,-0.253906 -0.78125,-0.332031 -0.48828,-0.07813 -1.28906,-0.175781 v -0.78125 q 1.28906,-0.3125 2.46094,-0.625 1.17187,-0.332031 2.28516,-0.9375 l 0.19531,0.195313 q 0.11719,0.117187 0.23437,0.214843 0.13672,0.117188 0.29297,0.253907 v 15.410156 q 0.97656,-1.171875 1.9336,-2.03125 0.97656,-0.859375 1.85546,-1.40625 0.89844,-0.566407 1.66016,-0.839844 0.76172,-0.273438 1.32813,-0.273438 1.32812,0 2.4414,0.625 1.13281,0.625 1.9336,1.816407 0.82031,1.171875 1.26953,2.871093 0.46875,1.699219 0.46875,3.828125 z m -2.63672,1.640625 q 0,-1.953125 -0.41016,-3.457031 -0.39062,-1.523437 -1.07422,-2.558594 -0.66406,-1.035156 -1.54297,-1.582031 -0.8789,-0.546875 -1.8164,-0.546875 -0.35156,0 -0.9375,0.214844 -0.56641,0.195312 -1.28906,0.683594 -0.72266,0.46875 -1.54297,1.289062 -0.82032,0.800781 -1.64063,2.011719 v 7.949219 q 0.78125,0.585937 1.58203,0.976562 0.82032,0.390625 1.54297,0.625 0.74219,0.214844 1.32813,0.3125 0.60547,0.09766 0.95703,0.09766 1.1914,0 2.08984,-0.507812 0.89844,-0.527344 1.50391,-1.367188 0.625,-0.859375 0.9375,-1.933593 0.3125,-1.074219 0.3125,-2.207032 z"
         style=""
         id="path968" />
      <path
         d="m 178.11719,45.382812 v -0.839843 q 0.48828,-0.03906 0.91797,-0.117188 0.42968,-0.07813 0.66406,-0.253906 0.2539,-0.175781 0.2539,-0.488281 0,-0.332032 -0.39062,-0.859375 l -3.86719,-5.253907 -3.6914,5.253907 q -0.3711,0.527343 -0.29297,0.859375 0.0781,0.3125 0.41015,0.488281 0.33203,0.175781 0.82032,0.253906 0.50781,0.07813 0.97656,0.117188 v 0.839843 h -7.40235 v -0.839843 q 0.78125,-0.117188 1.32813,-0.292969 0.54687,-0.195313 0.91797,-0.429688 0.39062,-0.253906 0.64453,-0.527343 Q 169.67969,43 169.89453,42.707031 l 4.74609,-6.601562 -4.58984,-6.289063 q -0.25391,-0.351562 -0.50781,-0.644531 -0.25391,-0.3125 -0.625,-0.527344 -0.35156,-0.234375 -0.87891,-0.371094 -0.52734,-0.15625 -1.30859,-0.214843 V 27.21875 h 8.20312 v 0.839844 q -0.60547,0.05859 -1.05468,0.175781 -0.42969,0.09766 -0.66407,0.292969 -0.21484,0.175781 -0.19531,0.488281 0.0391,0.292969 0.39063,0.761719 l 3.14453,4.335937 3.00781,-4.335937 q 0.35156,-0.46875 0.39062,-0.78125 0.0391,-0.3125 -0.17578,-0.488282 -0.19531,-0.195312 -0.625,-0.292968 -0.42968,-0.09766 -1.03515,-0.15625 V 27.21875 h 7.4414 v 0.839844 q -1.58203,0.117187 -2.46093,0.585937 -0.85938,0.449219 -1.36719,1.171875 l -4.10156,5.761719 5.21484,7.128906 q 0.23437,0.292969 0.50781,0.585938 0.27344,0.273437 0.625,0.527343 0.3711,0.253907 0.85938,0.449219 0.48828,0.195313 1.13281,0.273438 v 0.839843 z"
         style=""
         id="path970" />
    </g>
    <g
       aria-label="5"
       transform="matrix(0.26458333,0,0,0.26458333,-21.305753,211.00858)"
       style="font-style:normal;font-variant:normal;font-weight:normal;font-stretch:normal;font-size:40px;line-height:1.25;font-family:'Gentium Plus';-inkscape-font-specification:'Gentium Plus';letter-spacing:0px;word-spacing:0px;fill:#000000;fill-opacity:1;stroke:none"
       id="flowRoot832-5-8">
      <path
         d="m 146.28125,37.375 q 0,1.699219 -0.52734,3.261719 -0.50782,1.542968 -1.50391,2.734375 -0.97656,1.191406 -2.42188,1.894531 -1.44531,0.703125 -3.28125,0.703125 -1.8164,0 -3.59375,-0.664063 -1.77734,-0.664062 -3.47656,-2.246093 L 132.16016,41.75 q 1.03515,0.722656 1.875,1.171875 0.85937,0.429687 1.58203,0.683594 0.72265,0.234375 1.32812,0.332031 0.60547,0.07813 1.17188,0.07813 1.26953,0 2.20703,-0.488281 0.95703,-0.488282 1.58203,-1.289063 0.625,-0.820312 0.9375,-1.855469 0.3125,-1.054687 0.3125,-2.167968 0,-1.328125 -0.33203,-2.421875 -0.3125,-1.09375 -0.97656,-1.855469 -0.64454,-0.78125 -1.66016,-1.210938 -0.99609,-0.429687 -2.36328,-0.429687 -0.41016,0 -0.9375,0.09766 -0.52735,0.09766 -1.11328,0.292969 -0.56641,0.195312 -1.15235,0.488281 -0.5664,0.292969 -1.07422,0.683594 l -0.91796,-0.644531 q 0.11718,-0.703125 0.27343,-1.621094 0.15625,-0.9375 0.3125,-1.972656 0.17578,-1.035157 0.33203,-2.109375 0.17579,-1.09375 0.3125,-2.109375 0.13672,-1.035157 0.23438,-1.953125 0.0977,-0.917969 0.13672,-1.601563 h 8.51562 q 0.56641,0 0.9961,-0.03906 0.42968,-0.05859 0.74218,-0.136719 0.35157,-0.07813 0.625,-0.175781 l 0.56641,0.566406 q -0.21484,0.3125 -0.50781,0.664062 -0.27344,0.332032 -0.56641,0.644532 -0.29297,0.3125 -0.58594,0.585937 -0.27343,0.253906 -0.50781,0.429688 h -7.55859 q -0.0391,0.566406 -0.13672,1.464843 -0.0977,0.878907 -0.23438,1.816407 -0.11718,0.917968 -0.2539,1.738281 -0.13672,0.820312 -0.21485,1.25 0.78125,-0.234375 1.83594,-0.371094 1.05469,-0.136719 2.05078,-0.136719 1.77735,0 3.125,0.605469 1.36719,0.585938 2.28516,1.582031 0.91797,0.996094 1.38672,2.304688 0.48828,1.308594 0.48828,2.734375 z"
         style=""
         id="path973" />
    </g>
    <g
       aria-label="6"
       transform="matrix(0.26458333,0,0,0.26458333,-21.504707,221.6591)"
       style="font-style:normal;font-variant:normal;font-weight:normal;font-stretch:normal;font-size:40px;line-height:1.25;font-family:'Gentium Plus';-inkscape-font-specification:'Gentium Plus';letter-spacing:0px;word-spacing:0px;fill:#000000;fill-opacity:1;stroke:none"
       id="flowRoot832-5-1-1">
      <path
         d="m 139.71875,32.492187 q -0.99609,0 -2.20703,0.566407 -1.19141,0.546875 -2.28516,1.855468 0,2.324219 0.3711,4.023438 0.39062,1.679687 1.09375,2.792969 0.70312,1.113281 1.69921,1.660156 0.9961,0.527344 2.20704,0.527344 1.05468,0 1.73828,-0.488282 0.70312,-0.507812 1.11328,-1.269531 0.42969,-0.78125 0.60547,-1.71875 0.17578,-0.957031 0.17578,-1.855469 0,-1.835937 -0.44922,-3.007812 -0.42969,-1.191406 -1.09375,-1.875 -0.66406,-0.683594 -1.46484,-0.9375 -0.78125,-0.273438 -1.50391,-0.273438 z m 7.44141,4.84375 q 0,0.917969 -0.21485,1.914063 -0.19531,0.996094 -0.625,1.953125 -0.41015,0.957031 -1.03515,1.816406 -0.60547,0.859375 -1.42579,1.523438 -0.80078,0.644531 -1.8164,1.035156 -1.01563,0.390625 -2.20703,0.390625 -1.60157,0 -3.00782,-0.703125 -1.40625,-0.722656 -2.46093,-2.011719 -1.05469,-1.289062 -1.66016,-3.085937 -0.60547,-1.816407 -0.60547,-4.023438 0,-2.753906 0.78125,-5.273437 0.80078,-2.539063 2.44141,-4.570313 1.64062,-2.03125 4.12109,-3.417969 2.5,-1.40625 5.89844,-1.894531 l 0.37109,1.152344 q -2.30468,0.527344 -4.10156,1.601562 -1.77734,1.054688 -3.06641,2.460938 -1.26953,1.40625 -2.07031,3.085937 -0.78125,1.660157 -1.07422,3.398438 0.6836,-0.664063 1.38672,-1.113281 0.72266,-0.449219 1.38672,-0.722657 0.68359,-0.273437 1.28906,-0.390625 0.60547,-0.117187 1.05469,-0.117187 1.58203,0 2.8125,0.488281 1.23047,0.488281 2.07031,1.40625 0.85938,0.898438 1.3086,2.207031 0.44922,1.289063 0.44922,2.890625 z"
         style=""
         id="path976" />
    </g>
    <path
       style="opacity:1;vector-effect:none;fill:none;fill-opacity:1;stroke:#000000;stroke-width:0.26458332;stroke-linecap:round;stroke-linejoin:round;stroke-miterlimit:4;stroke-dasharray:none;stroke-dashoffset:0;stroke-opacity:1"
       d="M 5.9199731,237.0273 H 24.958607 c 0.288611,0 0.520958,0.23235 0.520958,0.52096 v 7.10396 c 0,0.28861 -0.232347,0.52096 -0.520958,0.52096 H 5.9199731 c -0.2886106,0 -0.5209577,-0.23235 -0.5209577,-0.52096 v -7.10396 c 0,-0.28861 0.2323471,-0.52096 0.5209577,-0.52096 z"
       id="rect815-3-9-1" />
    <g
       aria-label="rdx"
       transform="matrix(0.26458333,0,0,0.26458333,-5.2916671,231.9125)"
       style="font-style:normal;font-variant:normal;font-weight:normal;font-stretch:normal;font-size:40px;line-height:1.25;font-family:'Gentium Plus';-inkscape-font-specification:'Gentium Plus';letter-spacing:0px;word-spacing:0px;fill:#000000;fill-opacity:1;stroke:none"
       id="flowRoot832-6-3-9">
      <path
         d="m 144.99219,27.355469 q 0.17578,0.117187 0.15625,0.683593 0,0.566407 -0.15625,1.308594 -0.13672,0.742188 -0.3711,1.523438 -0.23437,0.78125 -0.46875,1.308593 h -0.83984 q -0.11719,-0.78125 -0.33203,-1.328125 -0.21485,-0.546875 -0.50781,-0.859375 -0.27344,-0.332031 -0.625,-0.46875 -0.33204,-0.15625 -0.70313,-0.15625 -0.42969,0 -1.01562,0.371094 -0.56641,0.351563 -1.17188,1.132813 -0.60547,0.761718 -1.21094,1.972656 -0.58593,1.191406 -1.05468,2.851562 v 7.65625 q 0,0.292969 0.72265,0.605469 0.74219,0.3125 2.57813,0.585938 v 0.839843 h -8.96485 v -0.839843 q 1.28907,-0.292969 2.01172,-0.566407 0.72266,-0.292968 0.72266,-0.625 V 31.984375 q 0,-0.644531 -0.0391,-1.074219 -0.0391,-0.449219 -0.0977,-0.722656 -0.0586,-0.273438 -0.15625,-0.429688 -0.0781,-0.15625 -0.15625,-0.253906 -0.13672,-0.136719 -0.3125,-0.214844 -0.15625,-0.09766 -0.42969,-0.15625 -0.2539,-0.05859 -0.625,-0.07813 -0.37109,-0.03906 -0.91797,-0.07813 v -0.78125 q 1.26953,-0.332031 2.48047,-0.664062 1.23047,-0.351563 2.20703,-0.898438 l 0.6836,0.683594 0.2539,4.433594 q 0.52735,-1.074219 1.13282,-2.011719 0.625,-0.9375 1.32812,-1.621094 0.70313,-0.703125 1.46484,-1.09375 0.78125,-0.390625 1.6211,-0.390625 0.625,0 1.34765,0.15625 0.72266,0.15625 1.44532,0.566407 z"
         style=""
         id="path980" />
      <path
         d="m 166.33984,43.742187 q -0.89843,0.605469 -1.60156,1.035157 -0.68359,0.410156 -1.21094,0.664062 -0.50781,0.273438 -0.8789,0.390625 -0.3711,0.136719 -0.64453,0.136719 -0.64454,0 -1.05469,-0.878906 -0.41016,-0.878907 -0.54688,-3.007813 -0.74218,0.898438 -1.48437,1.621094 -0.72266,0.722656 -1.50391,1.230469 -0.76172,0.488281 -1.62109,0.761718 -0.85938,0.273438 -1.85547,0.273438 -1.09375,0 -2.24609,-0.625 -1.15235,-0.644531 -2.12891,-1.835938 -0.95703,-1.191406 -1.58203,-2.910156 -0.60547,-1.71875 -0.60547,-3.886719 0,-1.113281 0.29297,-2.304687 0.3125,-1.191406 0.8789,-2.304688 0.56641,-1.113281 1.38672,-2.109375 0.82032,-0.996093 1.83594,-1.738281 1.01563,-0.761719 2.22656,-1.191406 1.21094,-0.429688 2.57813,-0.429688 0.91797,0 1.8164,0.234375 0.91797,0.214844 1.97266,0.996094 V 20.5 q 0,-1.074219 -0.0586,-1.699219 -0.0586,-0.644531 -0.33203,-0.976562 -0.27344,-0.351563 -0.83985,-0.46875 -0.5664,-0.136719 -1.60156,-0.214844 v -0.761719 q 1.60156,-0.214844 2.87109,-0.566406 1.26953,-0.371094 2.28516,-0.703125 l 0.60547,0.585938 v 24.726562 q 0,0.683594 0.0195,1.171875 0.0391,0.488281 0.0977,0.820312 0.0586,0.332032 0.13671,0.546875 0.0781,0.214844 0.19532,0.351563 0.17578,0.214844 0.66406,0.136719 0.50781,-0.09766 1.67969,-0.546875 z m -5.97656,-3.457031 V 31.125 q -0.64453,-1.113281 -1.81641,-1.71875 -1.17187,-0.625 -2.57812,-0.625 -1.25,0 -2.28516,0.46875 -1.03515,0.449219 -1.79687,1.367187 -0.74219,0.917969 -1.17188,2.285157 -0.41015,1.367187 -0.41015,3.203125 0,1.660156 0.46875,3.027343 0.48828,1.347657 1.23047,2.304688 0.74218,0.957031 1.62109,1.484375 0.89844,0.507812 1.69922,0.507812 0.66406,0 1.30859,-0.273437 0.64453,-0.273438 1.26953,-0.703125 0.625,-0.449219 1.23047,-1.015625 0.625,-0.566406 1.23047,-1.152344 z"
         style=""
         id="path982" />
      <path
         d="m 178.58594,45.382812 v -0.839843 q 0.48828,-0.03906 0.91797,-0.117188 0.42968,-0.07813 0.66406,-0.253906 0.2539,-0.175781 0.2539,-0.488281 0,-0.332032 -0.39062,-0.859375 l -3.86719,-5.253907 -3.6914,5.253907 q -0.3711,0.527343 -0.29297,0.859375 0.0781,0.3125 0.41015,0.488281 0.33203,0.175781 0.82032,0.253906 0.50781,0.07813 0.97656,0.117188 v 0.839843 h -7.40235 v -0.839843 q 0.78125,-0.117188 1.32813,-0.292969 0.54687,-0.195313 0.91797,-0.429688 0.39062,-0.253906 0.64453,-0.527343 Q 170.14844,43 170.36328,42.707031 l 4.74609,-6.601562 -4.58984,-6.289063 q -0.25391,-0.351562 -0.50781,-0.644531 -0.25391,-0.3125 -0.625,-0.527344 -0.35156,-0.234375 -0.87891,-0.371094 -0.52734,-0.15625 -1.30859,-0.214843 V 27.21875 h 8.20312 v 0.839844 q -0.60547,0.05859 -1.05468,0.175781 -0.42969,0.09766 -0.66407,0.292969 -0.21484,0.175781 -0.19531,0.488281 0.0391,0.292969 0.39063,0.761719 l 3.14453,4.335937 3.00781,-4.335937 q 0.35156,-0.46875 0.39062,-0.78125 0.0391,-0.3125 -0.17578,-0.488282 -0.19531,-0.195312 -0.625,-0.292968 -0.42968,-0.09766 -1.03515,-0.15625 V 27.21875 h 7.4414 v 0.839844 q -1.58203,0.117187 -2.46093,0.585937 -0.85938,0.449219 -1.36719,1.171875 l -4.10156,5.761719 5.21484,7.128906 q 0.23437,0.292969 0.50781,0.585938 0.27344,0.273437 0.625,0.527343 0.3711,0.253907 0.85938,0.449219 0.48828,0.195313 1.13281,0.273438 v 0.839843 z"
         style=""
         id="path984" />
    </g>
    <path
       style="fill:none;stroke:#000000;stroke-width:0.39687499;stroke-linecap:butt;stroke-linejoin:miter;stroke-miterlimit:4;stroke-dasharray:none;stroke-opacity:1;marker-end:url(#Arrow2Mend)"
       d="m 88.846955,215.99204 v 77.76477"
       id="path1040"
       inkscape:connector-curvature="0" />
    <g
       aria-label="t"
       transform="matrix(0.26458333,0,0,0.26458333,46.032764,279.13209)"
       style="font-style:normal;font-variant:normal;font-weight:normal;font-stretch:normal;font-size:40px;line-height:1.25;font-family:'Gentium Plus';-inkscape-font-specification:'Gentium Plus';letter-spacing:0px;word-spacing:0px;fill:#000000;fill-opacity:1;stroke:none"
       id="flowRoot832-4">
      <path
         d="m 143.15625,43.097656 q -0.95703,0.703125 -1.89453,1.25 -0.9375,0.527344 -1.79688,0.898438 -0.83984,0.351562 -1.5625,0.527343 -0.72265,0.195313 -1.23047,0.195313 -0.68359,0 -1.30859,-0.253906 -0.60547,-0.253907 -1.07422,-0.820313 -0.46875,-0.585937 -0.74219,-1.523437 -0.27343,-0.9375 -0.27343,-2.304688 V 29.074219 h -2.51953 l -0.41016,-0.546875 1.52344,-1.308594 h 1.40625 v -4.804688 l 2.32422,-2.03125 0.60546,0.488282 v 6.347656 h 6.38672 l 0.56641,0.566406 q -0.17578,0.273438 -0.44922,0.585938 -0.25391,0.3125 -0.52734,0.585937 -0.27344,0.273438 -0.54688,0.507813 -0.2539,0.214843 -0.44922,0.292968 -0.46875,-0.234375 -1.42578,-0.449218 -0.95703,-0.234375 -2.53906,-0.234375 h -1.01563 v 10.3125 q 0,1.171875 0.0977,1.953125 0.11719,0.78125 0.37109,1.25 0.25391,0.449218 0.64454,0.644531 0.41015,0.195312 0.99609,0.195312 0.68359,0 1.71875,-0.273437 1.03516,-0.273438 2.55859,-1.054688 z"
         style=""
         id="path987" />
    </g>
    <g
       aria-label="11"
       transform="matrix(0.26458333,0,0,0.26458333,-23.954171,279.93458)"
       style="font-style:normal;font-variant:normal;font-weight:normal;font-stretch:normal;font-size:40px;line-height:1.25;font-family:'Gentium Plus';-inkscape-font-specification:'Gentium Plus';letter-spacing:0px;word-spacing:0px;fill:#000000;fill-opacity:1;stroke:none"
       id="flowRoot832-5-1-10">
      <path
         d="m 133.27344,45.382812 v -1.035156 q 1.52343,-0.175781 2.53906,-0.390625 1.01562,-0.234375 1.62109,-0.46875 0.60547,-0.234375 0.85938,-0.449219 0.2539,-0.234375 0.2539,-0.449218 V 27.023437 q 0,-0.78125 -0.0586,-1.210937 -0.0586,-0.429688 -0.29297,-0.703125 -0.11719,-0.117188 -0.44922,-0.195313 -0.33203,-0.07813 -0.9375,-0.05859 -0.60547,0.01953 -1.52343,0.136718 -0.91797,0.117188 -2.20704,0.390625 l -0.41015,-0.996093 q 0.82031,-0.234375 1.93359,-0.644532 1.13281,-0.410156 2.28516,-0.878906 1.15234,-0.488281 2.1875,-0.957031 1.03515,-0.488281 1.67969,-0.839844 L 141.47656,21.75 v 20.839844 q 0,0.195312 0.21485,0.429687 0.21484,0.214844 0.76171,0.449219 0.54688,0.234375 1.48438,0.46875 0.95703,0.234375 2.42187,0.410156 v 1.035156 z"
         style=""
         id="path990" />
      <path
         d="m 152.02344,45.382812 v -1.035156 q 1.52343,-0.175781 2.53906,-0.390625 1.01562,-0.234375 1.62109,-0.46875 0.60547,-0.234375 0.85938,-0.449219 0.2539,-0.234375 0.2539,-0.449218 V 27.023437 q 0,-0.78125 -0.0586,-1.210937 -0.0586,-0.429688 -0.29297,-0.703125 -0.11719,-0.117188 -0.44922,-0.195313 -0.33203,-0.07813 -0.9375,-0.05859 -0.60547,0.01953 -1.52343,0.136718 -0.91797,0.117188 -2.20704,0.390625 l -0.41015,-0.996093 q 0.82031,-0.234375 1.93359,-0.644532 1.13281,-0.410156 2.28516,-0.878906 1.15234,-0.488281 2.1875,-0.957031 1.03515,-0.488281 1.67969,-0.839844 L 160.22656,21.75 v 20.839844 q 0,0.195312 0.21485,0.429687 0.21484,0.214844 0.76171,0.449219 0.54688,0.234375 1.48438,0.46875 0.95703,0.234375 2.42187,0.410156 v 1.035156 z"
         style=""
         id="path992" />
    </g>
  </g>
</svg>
