<?xml version="1.0" encoding="UTF-8" standalone="no"?>
<!-- Created with Inkscape (http://www.inkscape.org/) -->

<svg
   xmlns:dc="http://purl.org/dc/elements/1.1/"
   xmlns:cc="http://creativecommons.org/ns#"
   xmlns:rdf="http://www.w3.org/1999/02/22-rdf-syntax-ns#"
   xmlns:svg="http://www.w3.org/2000/svg"
   xmlns="http://www.w3.org/2000/svg"
   xmlns:sodipodi="http://sodipodi.sourceforge.net/DTD/sodipodi-0.dtd"
   xmlns:inkscape="http://www.inkscape.org/namespaces/inkscape"
   width="330"
   height="260"
   viewBox="0 0 87.312555 68.791668"
   version="1.1"
   id="svg1427"
   inkscape:version="0.92.3 (2405546, 2018-03-11)"
   sodipodi:docname="stack_machine.plain.svg">
  <defs
     id="defs1421">
    <marker
       inkscape:stockid="Arrow2Mend"
       orient="auto"
       refY="0"
       refX="0"
       id="Arrow2Mend"
       style="overflow:visible"
       inkscape:isstock="true">
      <path
         inkscape:connector-curvature="0"
         id="path1069"
         style="fill:#000000;fill-opacity:1;fill-rule:evenodd;stroke:#000000;stroke-width:0.625;stroke-linejoin:round;stroke-opacity:1"
         d="M 8.7185878,4.0337352 -2.2072895,0.01601326 8.7185884,-4.0017078 c -1.7454984,2.3720609 -1.7354408,5.6174519 -6e-7,8.035443 z"
         transform="scale(-0.6)" />
    </marker>
  </defs>
  <sodipodi:namedview
     id="base"
     pagecolor="#ffffff"
     bordercolor="#666666"
     borderopacity="1.0"
     inkscape:pageopacity="0.0"
     inkscape:pageshadow="2"
     inkscape:zoom="1.9751849"
     inkscape:cx="68.25428"
     inkscape:cy="173.41617"
     inkscape:document-units="px"
     inkscape:current-layer="layer1"
     showgrid="false"
     units="px"
     inkscape:window-width="1920"
     inkscape:window-height="1017"
     inkscape:window-x="0"
     inkscape:window-y="34"
     inkscape:window-maximized="1" />
  <metadata
     id="metadata1424">
    <rdf:RDF>
      <cc:Work
         rdf:about="">
        <dc:format>image/svg+xml</dc:format>
        <dc:type
           rdf:resource="http://purl.org/dc/dcmitype/StillImage" />
        <dc:title></dc:title>
      </cc:Work>
    </rdf:RDF>
  </metadata>
  <g
     inkscape:label="Layer 1"
     inkscape:groupmode="layer"
     id="layer1"
     transform="translate(0,-228.20832)">
    <path
       style="opacity:1;vector-effect:none;fill:#d0d0ff;fill-opacity:1;stroke:#000000;stroke-width:0.26458332;stroke-linecap:round;stroke-linejoin:round;stroke-miterlimit:4;stroke-dasharray:none;stroke-dashoffset:0;stroke-opacity:1"
       d="m 4.70284,284.61151 h 19.038634 c 0.288611,0 0.520958,0.23235 0.520958,0.52096 v 7.10397 c 0,0.28861 -0.232347,0.52095 -0.520958,0.52095 H 4.70284 c -0.2886105,0 -0.5209576,-0.23234 -0.5209576,-0.52095 v -7.10397 c 0,-0.28861 0.2323471,-0.52096 0.5209576,-0.52096 z"
       id="rect815-7" />
    <g
       aria-label="5"
       transform="matrix(0.26458333,0,0,0.26458333,-22.522886,279.75954)"
       style="font-style:normal;font-variant:normal;font-weight:normal;font-stretch:normal;font-size:40px;line-height:1.25;font-family:'Gentium Plus';-inkscape-font-specification:'Gentium Plus';letter-spacing:0px;word-spacing:0px;fill:#000000;fill-opacity:1;stroke:none"
       id="flowRoot832-5-8">
      <path
         d="m 146.28125,37.375 q 0,1.699219 -0.52734,3.261719 -0.50782,1.542968 -1.50391,2.734375 -0.97656,1.191406 -2.42188,1.894531 -1.44531,0.703125 -3.28125,0.703125 -1.8164,0 -3.59375,-0.664063 -1.77734,-0.664062 -3.47656,-2.246093 L 132.16016,41.75 q 1.03515,0.722656 1.875,1.171875 0.85937,0.429687 1.58203,0.683594 0.72265,0.234375 1.32812,0.332031 0.60547,0.07813 1.17188,0.07813 1.26953,0 2.20703,-0.488281 0.95703,-0.488282 1.58203,-1.289063 0.625,-0.820312 0.9375,-1.855469 0.3125,-1.054687 0.3125,-2.167968 0,-1.328125 -0.33203,-2.421875 -0.3125,-1.09375 -0.97656,-1.855469 -0.64454,-0.78125 -1.66016,-1.210938 -0.99609,-0.429687 -2.36328,-0.429687 -0.41016,0 -0.9375,0.09766 -0.52735,0.09766 -1.11328,0.292969 -0.56641,0.195312 -1.15235,0.488281 -0.5664,0.292969 -1.07422,0.683594 l -0.91796,-0.644531 q 0.11718,-0.703125 0.27343,-1.621094 0.15625,-0.9375 0.3125,-1.972656 0.17578,-1.035157 0.33203,-2.109375 0.17579,-1.09375 0.3125,-2.109375 0.13672,-1.035157 0.23438,-1.953125 0.0977,-0.917969 0.13672,-1.601563 h 8.51562 q 0.56641,0 0.9961,-0.03906 0.42968,-0.05859 0.74218,-0.136719 0.35157,-0.07813 0.625,-0.175781 l 0.56641,0.566406 q -0.21484,0.3125 -0.50781,0.664062 -0.27344,0.332032 -0.56641,0.644532 -0.29297,0.3125 -0.58594,0.585937 -0.27343,0.253906 -0.50781,0.429688 h -7.55859 q -0.0391,0.566406 -0.13672,1.464843 -0.0977,0.878907 -0.23438,1.816407 -0.11718,0.917968 -0.2539,1.738281 -0.13672,0.820312 -0.21485,1.25 0.78125,-0.234375 1.83594,-0.371094 1.05469,-0.136719 2.05078,-0.136719 1.77735,0 3.125,0.605469 1.36719,0.585938 2.28516,1.582031 0.91797,0.996094 1.38672,2.304688 0.48828,1.308594 0.48828,2.734375 z"
         style=""
         id="path1441" />
    </g>
    <path
       style="opacity:1;vector-effect:none;fill:#d0d0ff;fill-opacity:1;stroke:#000000;stroke-width:0.26458332;stroke-linecap:round;stroke-linejoin:round;stroke-miterlimit:4;stroke-dasharray:none;stroke-dashoffset:0;stroke-opacity:1"
       d="m 27.457008,284.61151 h 19.038634 c 0.288611,0 0.520958,0.23235 0.520958,0.52096 v 7.10397 c 0,0.28861 -0.232347,0.52095 -0.520958,0.52095 H 27.457008 c -0.28861,0 -0.520958,-0.23234 -0.520958,-0.52095 v -7.10397 c 0,-0.28861 0.232348,-0.52096 0.520958,-0.52096 z"
       id="rect815-7-0" />
    <path
       style="opacity:1;vector-effect:none;fill:#ffd0d0;fill-opacity:1;stroke:#000000;stroke-width:0.26458332;stroke-linecap:round;stroke-linejoin:round;stroke-miterlimit:4;stroke-dasharray:none;stroke-dashoffset:0;stroke-opacity:1"
       d="m 27.457008,276.42908 h 19.038634 c 0.288611,0 0.520958,0.23234 0.520958,0.52095 v 7.10397 c 0,0.28861 -0.232347,0.52096 -0.520958,0.52096 H 27.457008 c -0.28861,0 -0.520958,-0.23235 -0.520958,-0.52096 v -7.10397 c 0,-0.28861 0.232348,-0.52095 0.520958,-0.52095 z"
       id="rect815-3-92-6" />
    <g
       aria-label="5"
       transform="matrix(0.26458333,0,0,0.26458333,0.23128118,279.75953)"
       style="font-style:normal;font-variant:normal;font-weight:normal;font-stretch:normal;font-size:40px;line-height:1.25;font-family:'Gentium Plus';-inkscape-font-specification:'Gentium Plus';letter-spacing:0px;word-spacing:0px;fill:#000000;fill-opacity:1;stroke:none"
       id="flowRoot832-5-8-1">
      <path
         d="m 146.28125,37.375 q 0,1.699219 -0.52734,3.261719 -0.50782,1.542968 -1.50391,2.734375 -0.97656,1.191406 -2.42188,1.894531 -1.44531,0.703125 -3.28125,0.703125 -1.8164,0 -3.59375,-0.664063 -1.77734,-0.664062 -3.47656,-2.246093 L 132.16016,41.75 q 1.03515,0.722656 1.875,1.171875 0.85937,0.429687 1.58203,0.683594 0.72265,0.234375 1.32812,0.332031 0.60547,0.07813 1.17188,0.07813 1.26953,0 2.20703,-0.488281 0.95703,-0.488282 1.58203,-1.289063 0.625,-0.820312 0.9375,-1.855469 0.3125,-1.054687 0.3125,-2.167968 0,-1.328125 -0.33203,-2.421875 -0.3125,-1.09375 -0.97656,-1.855469 -0.64454,-0.78125 -1.66016,-1.210938 -0.99609,-0.429687 -2.36328,-0.429687 -0.41016,0 -0.9375,0.09766 -0.52735,0.09766 -1.11328,0.292969 -0.56641,0.195312 -1.15235,0.488281 -0.5664,0.292969 -1.07422,0.683594 l -0.91796,-0.644531 q 0.11718,-0.703125 0.27343,-1.621094 0.15625,-0.9375 0.3125,-1.972656 0.17578,-1.035157 0.33203,-2.109375 0.17579,-1.09375 0.3125,-2.109375 0.13672,-1.035157 0.23438,-1.953125 0.0977,-0.917969 0.13672,-1.601563 h 8.51562 q 0.56641,0 0.9961,-0.03906 0.42968,-0.05859 0.74218,-0.136719 0.35157,-0.07813 0.625,-0.175781 l 0.56641,0.566406 q -0.21484,0.3125 -0.50781,0.664062 -0.27344,0.332032 -0.56641,0.644532 -0.29297,0.3125 -0.58594,0.585937 -0.27343,0.253906 -0.50781,0.429688 h -7.55859 q -0.0391,0.566406 -0.13672,1.464843 -0.0977,0.878907 -0.23438,1.816407 -0.11718,0.917968 -0.2539,1.738281 -0.13672,0.820312 -0.21485,1.25 0.78125,-0.234375 1.83594,-0.371094 1.05469,-0.136719 2.05078,-0.136719 1.77735,0 3.125,0.605469 1.36719,0.585938 2.28516,1.582031 0.91797,0.996094 1.38672,2.304688 0.48828,1.308594 0.48828,2.734375 z"
         style=""
         id="path1446" />
    </g>
    <g
       aria-label="6"
       transform="matrix(0.26458333,0,0,0.26458333,0.03232722,271.64421)"
       style="font-style:normal;font-variant:normal;font-weight:normal;font-stretch:normal;font-size:40px;line-height:1.25;font-family:'Gentium Plus';-inkscape-font-specification:'Gentium Plus';letter-spacing:0px;word-spacing:0px;fill:#000000;fill-opacity:1;stroke:none"
       id="flowRoot832-5-1-1-7">
      <path
         d="m 139.71875,32.492187 q -0.99609,0 -2.20703,0.566407 -1.19141,0.546875 -2.28516,1.855468 0,2.324219 0.3711,4.023438 0.39062,1.679687 1.09375,2.792969 0.70312,1.113281 1.69921,1.660156 0.9961,0.527344 2.20704,0.527344 1.05468,0 1.73828,-0.488282 0.70312,-0.507812 1.11328,-1.269531 0.42969,-0.78125 0.60547,-1.71875 0.17578,-0.957031 0.17578,-1.855469 0,-1.835937 -0.44922,-3.007812 -0.42969,-1.191406 -1.09375,-1.875 -0.66406,-0.683594 -1.46484,-0.9375 -0.78125,-0.273438 -1.50391,-0.273438 z m 7.44141,4.84375 q 0,0.917969 -0.21485,1.914063 -0.19531,0.996094 -0.625,1.953125 -0.41015,0.957031 -1.03515,1.816406 -0.60547,0.859375 -1.42579,1.523438 -0.80078,0.644531 -1.8164,1.035156 -1.01563,0.390625 -2.20703,0.390625 -1.60157,0 -3.00782,-0.703125 -1.40625,-0.722656 -2.46093,-2.011719 -1.05469,-1.289062 -1.66016,-3.085937 -0.60547,-1.816407 -0.60547,-4.023438 0,-2.753906 0.78125,-5.273437 0.80078,-2.539063 2.44141,-4.570313 1.64062,-2.03125 4.12109,-3.417969 2.5,-1.40625 5.89844,-1.894531 l 0.37109,1.152344 q -2.30468,0.527344 -4.10156,1.601562 -1.77734,1.054688 -3.06641,2.460938 -1.26953,1.40625 -2.07031,3.085937 -0.78125,1.660157 -1.07422,3.398438 0.6836,-0.664063 1.38672,-1.113281 0.72266,-0.449219 1.38672,-0.722657 0.68359,-0.273437 1.28906,-0.390625 0.60547,-0.117187 1.05469,-0.117187 1.58203,0 2.8125,0.488281 1.23047,0.488281 2.07031,1.40625 0.85938,0.898438 1.3086,2.207031 0.44922,1.289063 0.44922,2.890625 z"
         style=""
         id="path1449" />
    </g>
    <path
       style="opacity:1;vector-effect:none;fill:#d0d0ff;fill-opacity:1;stroke:#000000;stroke-width:0.26499999;stroke-linecap:round;stroke-linejoin:round;stroke-miterlimit:4;stroke-dasharray:none;stroke-dashoffset:0;stroke-opacity:1"
       d="m 49.682014,284.61151 h 19.038634 c 0.288611,0 0.520958,0.23235 0.520958,0.52096 v 7.10397 c 0,0.28861 -0.232347,0.52095 -0.520958,0.52095 H 49.682014 c -0.28861,0 -0.520957,-0.23234 -0.520957,-0.52095 v -7.10397 c 0,-0.28861 0.232347,-0.52096 0.520957,-0.52096 z"
       id="rect815-7-0-3" />
    <g
       aria-label="11"
       transform="matrix(0.26458333,0,0,0.26458333,19.807871,279.89378)"
       style="font-style:normal;font-variant:normal;font-weight:normal;font-stretch:normal;font-size:40px;line-height:1.25;font-family:'Gentium Plus';-inkscape-font-specification:'Gentium Plus';letter-spacing:0px;word-spacing:0px;fill:#000000;fill-opacity:1;stroke:none;stroke-width:1.00157475;stroke-miterlimit:4;stroke-dasharray:none"
       id="flowRoot832-5-8-1-4">
      <path
         d="m 133.27344,45.382812 v -1.035156 q 1.52343,-0.175781 2.53906,-0.390625 1.01562,-0.234375 1.62109,-0.46875 0.60547,-0.234375 0.85938,-0.449219 0.2539,-0.234375 0.2539,-0.449218 V 27.023437 q 0,-0.78125 -0.0586,-1.210937 -0.0586,-0.429688 -0.29297,-0.703125 -0.11719,-0.117188 -0.44922,-0.195313 -0.33203,-0.07813 -0.9375,-0.05859 -0.60547,0.01953 -1.52343,0.136718 -0.91797,0.117188 -2.20704,0.390625 l -0.41015,-0.996093 q 0.82031,-0.234375 1.93359,-0.644532 1.13281,-0.410156 2.28516,-0.878906 1.15234,-0.488281 2.1875,-0.957031 1.03515,-0.488281 1.67969,-0.839844 L 141.47656,21.75 v 20.839844 q 0,0.195312 0.21485,0.429687 0.21484,0.214844 0.76171,0.449219 0.54688,0.234375 1.48438,0.46875 0.95703,0.234375 2.42187,0.410156 v 1.035156 z"
         style=""
         id="path1453" />
      <path
         d="m 152.02344,45.382812 v -1.035156 q 1.52343,-0.175781 2.53906,-0.390625 1.01562,-0.234375 1.62109,-0.46875 0.60547,-0.234375 0.85938,-0.449219 0.2539,-0.234375 0.2539,-0.449218 V 27.023437 q 0,-0.78125 -0.0586,-1.210937 -0.0586,-0.429688 -0.29297,-0.703125 -0.11719,-0.117188 -0.44922,-0.195313 -0.33203,-0.07813 -0.9375,-0.05859 -0.60547,0.01953 -1.52343,0.136718 -0.91797,0.117188 -2.20704,0.390625 l -0.41015,-0.996093 q 0.82031,-0.234375 1.93359,-0.644532 1.13281,-0.410156 2.28516,-0.878906 1.15234,-0.488281 2.1875,-0.957031 1.03515,-0.488281 1.67969,-0.839844 L 160.22656,21.75 v 20.839844 q 0,0.195312 0.21485,0.429687 0.21484,0.214844 0.76171,0.449219 0.54688,0.234375 1.48438,0.46875 0.95703,0.234375 2.42187,0.410156 v 1.035156 z"
         style=""
         id="path1455" />
    </g>
    <g
       aria-label="push 5
          push 6
                       add
                                    pop"
       style="font-style:normal;font-variant:normal;font-weight:normal;font-stretch:normal;font-size:7.05555534px;line-height:1.25;font-family:'Gentium Plus';-inkscape-font-specification:'Gentium Plus';letter-spacing:0px;word-spacing:0px;fill:#646464;fill-opacity:1;stroke:none;stroke-width:0.26458332"
       id="text2281">
      <path
         d="m 8.2359498,246.36866 q -0.3686252,0 -0.6752387,-0.13436 -0.3031684,-0.1378 -0.5098741,-0.4203 h -0.041341 q 0.041341,0.33073 0.041341,0.62701 v 1.55374 H 6.4789512 v -5.47082 H 6.944039 l 0.079237,0.51677 h 0.027561 q 0.2204861,-0.31006 0.5133192,-0.44786 0.2928331,-0.13781 0.6717936,-0.13781 0.7510308,0 1.1575521,0.51332 0.4099663,0.51332 0.4099663,1.44005 0,0.93018 -0.4168565,1.44694 -0.4134115,0.51332 -1.1506619,0.51332 z m -0.082682,-3.42787 q -0.578776,0 -0.8371582,0.32039 -0.2583821,0.3204 -0.2652723,1.01975 v 0.12747 q 0,0.79582 0.2652723,1.14033 0.2652724,0.34106 0.8509386,0.34106 0.4892036,0 0.7648112,-0.39618 0.2790527,-0.39619 0.2790527,-1.0921 0,-0.70624 -0.2790527,-1.08176 -0.2756076,-0.37896 -0.7785916,-0.37896 z"
         style="font-style:normal;font-variant:normal;font-weight:normal;font-stretch:normal;font-family:'Open Sans';-inkscape-font-specification:'Open Sans';fill:#646464;fill-opacity:1;stroke-width:0.26458332"
         id="path1458" />
      <path
         d="m 11.343426,242.52393 v 2.44947 q 0,0.46164 0.210151,0.68902 0.21015,0.22737 0.658013,0.22737 0.592556,0 0.864719,-0.32384 0.275607,-0.32384 0.275607,-1.05764 v -1.98438 h 0.571886 v 3.77583 h -0.471978 l -0.08268,-0.50643 h -0.03101 q -0.1757,0.27905 -0.489204,0.42719 -0.310058,0.14814 -0.709689,0.14814 -0.689019,0 -1.033529,-0.32728 -0.341064,-0.32729 -0.341064,-1.04731 v -2.47014 z"
         style="font-style:normal;font-variant:normal;font-weight:normal;font-stretch:normal;font-family:'Open Sans';-inkscape-font-specification:'Open Sans';fill:#646464;fill-opacity:1;stroke-width:0.26458332"
         id="path1460" />
      <path
         d="m 17.568713,245.26968 q 0,0.52709 -0.392741,0.81304 -0.392741,0.28594 -1.10243,0.28594 -0.751031,0 -1.171333,-0.23771 v -0.53055 q 0.272163,0.13781 0.582221,0.21705 0.313504,0.0792 0.602892,0.0792 0.447862,0 0.689019,-0.14125 0.241157,-0.14469 0.241157,-0.43752 0,-0.22049 -0.192926,-0.37552 -0.18948,-0.15847 -0.74414,-0.37207 -0.5271,-0.19637 -0.751031,-0.34106 -0.220486,-0.14814 -0.330729,-0.33418 -0.106798,-0.18603 -0.106798,-0.44441 0,-0.46165 0.375515,-0.72692 0.375516,-0.26872 1.030084,-0.26872 0.609782,0 1.192003,0.24805 l -0.203261,0.46509 q -0.568441,-0.23427 -1.030083,-0.23427 -0.406522,0 -0.613227,0.12747 -0.206706,0.12747 -0.206706,0.3514 0,0.15158 0.07579,0.25838 0.07924,0.1068 0.251492,0.20326 0.172255,0.0965 0.661458,0.27905 0.671794,0.24461 0.90606,0.49265 0.237712,0.24805 0.237712,0.62357 z"
         style="font-style:normal;font-variant:normal;font-weight:normal;font-stretch:normal;font-family:'Open Sans';-inkscape-font-specification:'Open Sans';fill:#646464;fill-opacity:1;stroke-width:0.26458332"
         id="path1462" />
      <path
         d="m 21.079266,246.29976 v -2.44257 q 0,-0.46165 -0.210151,-0.68902 -0.210151,-0.22738 -0.658013,-0.22738 -0.596002,0 -0.87161,0.32384 -0.272162,0.32384 -0.272162,1.06109 v 1.97404 h -0.571886 v -5.36057 h 0.571886 v 1.62264 q 0,0.29283 -0.02756,0.48576 h 0.03445 q 0.16881,-0.27216 0.478868,-0.42719 0.313504,-0.15848 0.713135,-0.15848 0.692464,0 1.036974,0.33073 0.347954,0.32729 0.347954,1.04387 v 2.46324 z"
         style="font-style:normal;font-variant:normal;font-weight:normal;font-stretch:normal;font-family:'Open Sans';-inkscape-font-specification:'Open Sans';fill:#646464;fill-opacity:1;stroke-width:0.26458332"
         id="path1464" />
      <path
         d="m 25.967855,243.22329 q 0.795817,0 1.25057,0.39618 0.458198,0.39275 0.458198,1.07832 0,0.78204 -0.499539,1.22645 -0.496094,0.44442 -1.371148,0.44442 -0.850939,0 -1.298801,-0.27216 v -0.55122 q 0.241157,0.15503 0.599447,0.2446 0.35829,0.0861 0.706244,0.0861 0.606337,0 0.940511,-0.28594 0.33762,-0.28594 0.33762,-0.82682 0,-1.0542 -1.291911,-1.0542 -0.327284,0 -0.875054,0.0999 l -0.296279,-0.18948 0.189481,-2.35644 h 2.504584 v 0.5271 h -2.015381 l -0.127468,1.5124 q 0.396186,-0.0792 0.788926,-0.0792 z"
         style="font-style:normal;font-variant:normal;font-weight:normal;font-stretch:normal;font-family:'Open Sans';-inkscape-font-specification:'Open Sans';fill:#646464;fill-opacity:1;stroke-width:0.26458332"
         id="path1466" />
      <path
         d="m 26.563857,255.26606 q -0.368625,0 -0.675238,-0.13436 -0.303169,-0.1378 -0.509874,-0.4203 h -0.04134 q 0.04134,0.33073 0.04134,0.62701 v 1.55374 h -0.571886 v -5.47081 h 0.465088 l 0.07924,0.51676 h 0.02756 q 0.220486,-0.31006 0.513319,-0.44786 0.292833,-0.13781 0.671793,-0.13781 0.751031,0 1.157552,0.51332 0.409967,0.51332 0.409967,1.44005 0,0.93018 -0.416857,1.44694 -0.413411,0.51332 -1.150662,0.51332 z m -0.08268,-3.42787 q -0.578776,0 -0.837158,0.3204 -0.258382,0.32039 -0.265272,1.01974 v 0.12747 q 0,0.79582 0.265272,1.14033 0.265272,0.34106 0.850938,0.34106 0.489204,0 0.764812,-0.39618 0.279052,-0.39619 0.279052,-1.0921 0,-0.70624 -0.279052,-1.08176 -0.275608,-0.37896 -0.778592,-0.37896 z"
         style="font-style:normal;font-variant:normal;font-weight:normal;font-stretch:normal;font-family:'Open Sans';-inkscape-font-specification:'Open Sans';fill:#646464;fill-opacity:1;stroke-width:0.26458332"
         id="path1468" />
      <path
         d="m 29.671333,251.42134 v 2.44946 q 0,0.46164 0.210151,0.68902 0.210151,0.22737 0.658013,0.22737 0.592557,0 0.864719,-0.32384 0.275608,-0.32383 0.275608,-1.05764 v -1.98437 h 0.571886 v 3.77582 h -0.471978 l -0.08268,-0.50643 h -0.03101 q -0.1757,0.27905 -0.489204,0.42719 -0.310059,0.14814 -0.70969,0.14814 -0.689019,0 -1.033528,-0.32728 -0.341065,-0.32729 -0.341065,-1.04731 v -2.47013 z"
         style="font-style:normal;font-variant:normal;font-weight:normal;font-stretch:normal;font-family:'Open Sans';-inkscape-font-specification:'Open Sans';fill:#646464;fill-opacity:1;stroke-width:0.26458332"
         id="path1470" />
      <path
         d="m 35.896621,254.16708 q 0,0.5271 -0.392741,0.81304 -0.392741,0.28594 -1.102431,0.28594 -0.751031,0 -1.171332,-0.23771 v -0.53054 q 0.272162,0.1378 0.582221,0.21704 0.313504,0.0792 0.602892,0.0792 0.447862,0 0.689019,-0.14124 0.241156,-0.1447 0.241156,-0.43753 0,-0.22049 -0.192925,-0.37552 -0.18948,-0.15847 -0.744141,-0.37207 -0.527099,-0.19637 -0.75103,-0.34106 -0.220486,-0.14814 -0.33073,-0.33418 -0.106798,-0.18603 -0.106798,-0.44441 0,-0.46165 0.375516,-0.72692 0.375515,-0.26872 1.030083,-0.26872 0.609782,0 1.192003,0.24805 l -0.20326,0.46509 q -0.568441,-0.23427 -1.030084,-0.23427 -0.406521,0 -0.613227,0.12747 -0.206705,0.12747 -0.206705,0.3514 0,0.15158 0.07579,0.25838 0.07924,0.1068 0.251492,0.20326 0.172254,0.0965 0.661458,0.27906 0.671794,0.2446 0.90606,0.49264 0.237712,0.24805 0.237712,0.62357 z"
         style="font-style:normal;font-variant:normal;font-weight:normal;font-stretch:normal;font-family:'Open Sans';-inkscape-font-specification:'Open Sans';fill:#646464;fill-opacity:1;stroke-width:0.26458332"
         id="path1472" />
      <path
         d="m 39.407173,255.19716 v -2.44257 q 0,-0.46165 -0.210151,-0.68902 -0.210151,-0.22738 -0.658013,-0.22738 -0.596001,0 -0.871609,0.32384 -0.272163,0.32384 -0.272163,1.06109 v 1.97404 h -0.571885 v -5.36057 h 0.571885 v 1.62264 q 0,0.29283 -0.02756,0.48576 h 0.03445 q 0.168809,-0.27216 0.478868,-0.42719 0.313504,-0.15848 0.713135,-0.15848 0.692464,0 1.036973,0.33073 0.347955,0.32729 0.347955,1.04387 v 2.46324 z"
         style="font-style:normal;font-variant:normal;font-weight:normal;font-stretch:normal;font-family:'Open Sans';-inkscape-font-specification:'Open Sans';fill:#646464;fill-opacity:1;stroke-width:0.26458332"
         id="path1474" />
      <path
         d="m 42.779921,253.04398 q 0,-1.48484 0.575331,-2.21865 0.578776,-0.73725 1.708767,-0.73725 0.389296,0 0.613227,0.0655 v 0.49265 q -0.265272,-0.0861 -0.606337,-0.0861 -0.809597,0 -1.236789,0.50643 -0.427192,0.50298 -0.468533,1.58474 h 0.04134 q 0.378961,-0.59255 1.198894,-0.59255 0.678683,0 1.067979,0.40996 0.392741,0.40997 0.392741,1.11277 0,0.78548 -0.430637,1.23679 -0.427192,0.44786 -1.157552,0.44786 -0.782037,0 -1.240234,-0.58566 -0.458198,-0.58912 -0.458198,-1.63642 z m 1.691542,1.73632 q 0.489203,0 0.757921,-0.30661 0.272162,-0.31006 0.272162,-0.89228 0,-0.49954 -0.251492,-0.78548 -0.251492,-0.28594 -0.75103,-0.28594 -0.310059,0 -0.568441,0.12746 -0.258382,0.12747 -0.413412,0.3514 -0.151584,0.22394 -0.151584,0.46509 0,0.35485 0.137804,0.66146 0.137804,0.30661 0.389296,0.48576 0.254937,0.17914 0.578776,0.17914 z"
         style="font-style:normal;font-variant:normal;font-weight:normal;font-stretch:normal;font-family:'Open Sans';-inkscape-font-specification:'Open Sans';fill:#646464;fill-opacity:1;stroke-width:0.26458332"
         id="path1476" />
      <path
         d="m 50.955132,264.09456 -0.113688,-0.53743 h -0.02756 q -0.282498,0.35484 -0.564996,0.48231 -0.279053,0.12402 -0.699354,0.12402 -0.561551,0 -0.881945,-0.28938 -0.316948,-0.28939 -0.316948,-0.82338 0,-1.14377 1.829345,-1.1989 l 0.640788,-0.0207 v -0.23426 q 0,-0.44442 -0.192925,-0.65457 -0.189481,-0.2136 -0.609782,-0.2136 -0.471978,0 -1.06798,0.28939 l -0.1757,-0.43753 q 0.279053,-0.15158 0.609782,-0.23771 0.334174,-0.0861 0.668349,-0.0861 0.675238,0 0.999077,0.29972 0.327284,0.29972 0.327284,0.96118 v 2.57693 z m -1.291911,-0.40307 q 0.53399,0 0.837158,-0.29284 0.306614,-0.29283 0.306614,-0.81993 v -0.34106 l -0.571886,0.0241 q -0.682129,0.0241 -0.985298,0.2136 -0.299723,0.18603 -0.299723,0.58222 0,0.31006 0.186035,0.47198 0.189481,0.16192 0.5271,0.16192 z"
         style="font-style:normal;font-variant:normal;font-weight:normal;font-stretch:normal;font-family:'Open Sans';-inkscape-font-specification:'Open Sans';fill:#646464;fill-opacity:1;stroke-width:0.26458332"
         id="path1478" />
      <path
         d="m 55.130589,263.58813 h -0.03101 q -0.396186,0.57533 -1.185113,0.57533 -0.740695,0 -1.154107,-0.50643 -0.409966,-0.50642 -0.409966,-1.44005 0,-0.93362 0.413411,-1.45038 0.413412,-0.51676 1.150662,-0.51676 0.768256,0 1.178223,0.5581 h 0.04479 l -0.02412,-0.27216 -0.01378,-0.26527 v -1.53652 h 0.571886 v 5.36057 h -0.465088 z m -1.143772,0.0965 q 0.585666,0 0.847493,-0.31695 0.265273,-0.3204 0.265273,-1.03009 v -0.12058 q 0,-0.8027 -0.268718,-1.14377 -0.265272,-0.34451 -0.850938,-0.34451 -0.502984,0 -0.771702,0.39274 -0.265272,0.3893 -0.265272,1.10243 0,0.72347 0.265272,1.0921 0.265273,0.36863 0.778592,0.36863 z"
         style="font-style:normal;font-variant:normal;font-weight:normal;font-stretch:normal;font-family:'Open Sans';-inkscape-font-specification:'Open Sans';fill:#646464;fill-opacity:1;stroke-width:0.26458332"
         id="path1480" />
      <path
         d="m 59.457627,263.58813 h -0.03101 q -0.396186,0.57533 -1.185113,0.57533 -0.740696,0 -1.154107,-0.50643 -0.409966,-0.50642 -0.409966,-1.44005 0,-0.93362 0.413411,-1.45038 0.413411,-0.51676 1.150662,-0.51676 0.768256,0 1.178222,0.5581 h 0.04479 l -0.02412,-0.27216 -0.01378,-0.26527 v -1.53652 h 0.571885 v 5.36057 h -0.465087 z m -1.143772,0.0965 q 0.585666,0 0.847493,-0.31695 0.265273,-0.3204 0.265273,-1.03009 v -0.12058 q 0,-0.8027 -0.268718,-1.14377 -0.265272,-0.34451 -0.850938,-0.34451 -0.502984,0 -0.771702,0.39274 -0.265272,0.3893 -0.265272,1.10243 0,0.72347 0.265272,1.0921 0.265273,0.36863 0.778592,0.36863 z"
         style="font-style:normal;font-variant:normal;font-weight:normal;font-stretch:normal;font-family:'Open Sans';-inkscape-font-specification:'Open Sans';fill:#646464;fill-opacity:1;stroke-width:0.26458332"
         id="path1482" />
      <path
         d="m 74.216419,273.06086 q -0.368626,0 -0.675239,-0.13435 -0.303169,-0.13781 -0.509874,-0.42031 h -0.04134 q 0.04134,0.33073 0.04134,0.62701 v 1.55374 H 72.45942 v -5.47081 h 0.465088 l 0.07924,0.51676 h 0.02756 q 0.220486,-0.31006 0.513319,-0.44786 0.292833,-0.1378 0.671794,-0.1378 0.75103,0 1.157552,0.51332 0.409966,0.51332 0.409966,1.44005 0,0.93017 -0.416857,1.44694 -0.413411,0.51331 -1.150661,0.51331 z m -0.08268,-3.42786 q -0.578776,0 -0.837158,0.32039 -0.258382,0.32039 -0.265272,1.01975 v 0.12747 q 0,0.79581 0.265272,1.14032 0.265272,0.34107 0.850939,0.34107 0.489203,0 0.764811,-0.39619 0.279053,-0.39619 0.279053,-1.09209 0,-0.70625 -0.279053,-1.08176 Q 74.63672,269.633 74.133736,269.633 Z"
         style="font-style:normal;font-variant:normal;font-weight:normal;font-stretch:normal;font-family:'Open Sans';-inkscape-font-specification:'Open Sans';fill:#646464;fill-opacity:1;stroke-width:0.26458332"
         id="path1484" />
      <path
         d="m 80.045514,271.10061 q 0,0.92328 -0.465088,1.44349 -0.465088,0.51676 -1.28502,0.51676 -0.506429,0 -0.89917,-0.23771 -0.392741,-0.23771 -0.606337,-0.68213 -0.213596,-0.44441 -0.213596,-1.04041 0,-0.92329 0.461643,-1.43661 0.461643,-0.51676 1.281575,-0.51676 0.792372,0 1.25746,0.5271 0.468533,0.5271 0.468533,1.42627 z m -2.876654,0 q 0,0.72347 0.289388,1.10243 0.289388,0.37896 0.850938,0.37896 0.561551,0 0.850939,-0.37552 0.292833,-0.37896 0.292833,-1.10587 0,-0.72003 -0.292833,-1.0921 -0.289388,-0.37551 -0.857829,-0.37551 -0.561551,0 -0.847494,0.36862 -0.285942,0.36863 -0.285942,1.09899 z"
         style="font-style:normal;font-variant:normal;font-weight:normal;font-stretch:normal;font-family:'Open Sans';-inkscape-font-specification:'Open Sans';fill:#646464;fill-opacity:1;stroke-width:0.26458332"
         id="path1486" />
      <path
         d="m 82.801593,273.06086 q -0.368625,0 -0.675239,-0.13435 -0.303168,-0.13781 -0.509874,-0.42031 h -0.04134 q 0.04134,0.33073 0.04134,0.62701 v 1.55374 h -0.571886 v -5.47081 h 0.465088 l 0.07924,0.51676 h 0.02756 q 0.220486,-0.31006 0.51332,-0.44786 0.292833,-0.1378 0.671793,-0.1378 0.751031,0 1.157552,0.51332 0.409967,0.51332 0.409967,1.44005 0,0.93017 -0.416857,1.44694 -0.413411,0.51331 -1.150662,0.51331 z m -0.08268,-3.42786 q -0.578776,0 -0.837158,0.32039 -0.258382,0.32039 -0.265273,1.01975 v 0.12747 q 0,0.79581 0.265273,1.14032 0.265272,0.34107 0.850938,0.34107 0.489204,0 0.764811,-0.39619 0.279053,-0.39619 0.279053,-1.09209 0,-0.70625 -0.279053,-1.08176 -0.275607,-0.37896 -0.778591,-0.37896 z"
         style="font-style:normal;font-variant:normal;font-weight:normal;font-stretch:normal;font-family:'Open Sans';-inkscape-font-specification:'Open Sans';fill:#646464;fill-opacity:1;stroke-width:0.26458332"
         id="path1488" />
    </g>
    <path
       style="fill:none;stroke:#000000;stroke-width:0.39687514;stroke-linecap:butt;stroke-linejoin:miter;stroke-miterlimit:4;stroke-dasharray:none;stroke-opacity:1;marker-end:url(#Arrow2Mend)"
       d="M 4.9499643,233.74174 H 82.714759"
       id="path1040"
       inkscape:connector-curvature="0" />
    <g
       aria-label="t"
       transform="matrix(0.26458342,0,0,0.26458342,40.400555,230.67286)"
       style="font-style:normal;font-variant:normal;font-weight:normal;font-stretch:normal;font-size:40px;line-height:1.25;font-family:'Gentium Plus';-inkscape-font-specification:'Gentium Plus';letter-spacing:0px;word-spacing:0px;fill:#000000;fill-opacity:1;stroke:none"
       id="flowRoot832-4">
      <path
         d="m 143.15625,43.097656 q -0.95703,0.703125 -1.89453,1.25 -0.9375,0.527344 -1.79688,0.898438 -0.83984,0.351562 -1.5625,0.527343 -0.72265,0.195313 -1.23047,0.195313 -0.68359,0 -1.30859,-0.253906 -0.60547,-0.253907 -1.07422,-0.820313 -0.46875,-0.585937 -0.74219,-1.523437 -0.27343,-0.9375 -0.27343,-2.304688 V 29.074219 h -2.51953 l -0.41016,-0.546875 1.52344,-1.308594 h 1.40625 v -4.804688 l 2.32422,-2.03125 0.60546,0.488282 v 6.347656 h 6.38672 l 0.56641,0.566406 q -0.17578,0.273438 -0.44922,0.585938 -0.25391,0.3125 -0.52734,0.585937 -0.27344,0.273438 -0.54688,0.507813 -0.2539,0.214843 -0.44922,0.292968 -0.46875,-0.234375 -1.42578,-0.449218 -0.95703,-0.234375 -2.53906,-0.234375 h -1.01563 v 10.3125 q 0,1.171875 0.0977,1.953125 0.11719,0.78125 0.37109,1.25 0.25391,0.449218 0.64454,0.644531 0.41015,0.195312 0.99609,0.195312 0.68359,0 1.71875,-0.273437 1.03516,-0.273438 2.55859,-1.054688 z"
         style=""
         id="path1491" />
    </g>
  </g>
</svg>
